<svg xmlns="http://www.w3.org/2000/svg" width="1120" height="800" viewBox="0 0 1120 800">
<rect width="100%%" height="100%%" fill="#fbfbfa"/>
<text x="560" y="30" font-family="sans-serif" font-size="18" font-weight="600" text-anchor="middle" fill="#1a1a1a">So liegt der Controller in der Mulde</text>
<polygon points="389.2,108.4 394.2,108.8 398.6,109.4 402.4,110.3 405.6,111.4 408.3,112.8 410.4,114.6 411.7,116.5 412.9,118.5 413.9,120.5 414.8,122.6 415.5,124.7 416.2,126.9 416.7,129.2 417.1,131.6 417.3,134.0 417.4,138.4 417.3,144.7 417.1,152.9 416.6,163.1 416.1,175.2 415.3,189.3 414.4,205.3 413.3,223.2 412.3,239.3 411.3,253.5 410.3,265.8 409.4,276.2 408.5,284.7 407.6,291.4 406.7,296.2 405.9,299.2 404.9,301.7 403.6,303.8 402.2,305.5 400.5,306.7 398.6,307.5 396.5,307.7 394.3,307.5 392.1,306.8 389.7,305.9 387.3,304.8 384.8,303.4 382.1,301.8 379.3,300.0 376.5,297.9 373.5,295.6 370.3,293.1 367.4,290.3 364.8,287.2 362.5,283.8 360.4,280.2 358.6,276.4 357.1,272.3 355.8,267.9 354.9,263.3 354.0,259.2 353.1,255.5 352.2,252.3 351.4,249.4 350.6,247.0 349.9,245.0 349.2,243.5 347.8,240.8 347.2,238.9 346.5,236.8 345.9,234.4 345.3,231.7 344.7,228.6 344.1,225.3 343.5,221.8 343.0,218.6 342.4,215.8 341.9,213.4 341.5,211.5 341.0,209.9 340.3,208.2 338.7,208.3 335.0,208.8 329.6,209.9 322.5,211.4 313.7,213.4 303.2,215.9 291.0,218.9 277.2,222.4 264.8,225.7 253.8,228.8 244.4,231.7 236.3,234.4 229.7,236.9 224.6,239.2 221.0,241.3 218.6,243.3 215.9,245.0 212.8,246.4 209.4,247.3 205.7,247.8 201.7,248.0 197.4,247.8 193.2,247.2 177.1,259.4 162.2,282.1 162.0,284.5 165.3,306.8 145.8,319.8 145.5,326.8 144.9,333.5 144.4,339.4 143.8,344.5 143.2,348.7 142.5,352.2 141.7,354.9 140.9,356.9 139.5,358.8 137.6,360.6 135.2,362.3 132.4,363.9 129.1,365.4 125.3,366.8 121.0,368.1 116.2,369.4 111.8,370.5 107.8,371.5 104.1,372.3 100.8,373.0 97.9,373.5 95.3,373.9 93.0,374.1 91.1,374.2 88.9,374.0 86.5,373.6 83.8,373.0 80.8,372.2 77.5,371.1 74.0,369.8 70.2,368.3 66.1,366.6 62.3,364.7 58.9,362.5 55.8,360.1 53.0,357.5 50.5,354.6 48.5,351.6 46.7,348.3 45.3,344.8 44.1,341.5 43.1,338.4 42.2,335.3 41.4,332.4 40.8,329.6 40.4,326.9 40.1,324.4 40.0,322.0 40.0,319.6 40.1,317.4 40.3,315.2 40.5,313.0 40.9,310.9 41.3,308.9 41.9,307.0 42.6,305.1 43.3,303.3 44.2,301.4 45.2,299.5 46.2,297.6 47.4,295.7 48.7,293.8 50.1,291.9 51.6,290.1 53.1,286.6 54.8,281.2 56.6,273.9 58.5,264.7 60.6,253.8 62.8,241.0 65.0,226.4 67.4,209.9 69.8,195.2 72.0,182.2 74.2,170.9 76.3,161.3 78.4,153.5 80.3,147.3 82.3,142.8 84.1,140.1 86.1,137.6 88.3,135.3 90.7,133.3 93.2,131.4 95.8,129.8 98.7,128.5 101.6,127.3 104.7,126.4 107.6,125.6 110.3,124.9 112.7,124.4 114.9,124.0 116.9,123.8 118.7,123.7 120.4,123.7 121.9,123.9 123.8,124.8 126.0,126.3 128.5,128.3 131.4,130.9 134.7,134.2 138.3,138.0 142.4,142.5 146.8,147.5 150.9,152.0 154.7,155.9 158.0,159.3 161.0,162.1 163.7,164.4 166.0,166.1 167.8,167.2 169.4,167.9 171.0,168.5 172.6,169.0 174.2,169.4 175.9,169.7 177.5,170.0 179.2,170.2 180.9,170.3 182.6,170.4 184.4,170.3 186.4,170.2 188.5,170.0 190.6,169.7 193.0,169.3 195.4,168.8 198.0,168.2 200.6,167.5 204.1,166.4 208.3,164.8 213.3,162.8 219.1,160.3 225.6,157.4 233.0,154.0 241.1,150.1 249.9,145.8 258.3,141.8 266.0,138.2 273.2,134.9 279.9,131.9 286.0,129.2 291.5,126.9 296.5,125.0 300.9,123.3 305.4,121.7 309.9,120.2 314.5,118.8 319.2,117.4 323.9,116.1 328.7,114.9 333.5,113.8 338.4,112.7 343.5,111.7 348.7,110.9 354.1,110.2 359.7,109.6 365.4,109.1 371.3,108.7 377.3,108.5 383.5,108.3" fill="#c8663f" stroke="#8d4225" stroke-width="1.6"/>
<text x="245.0" y="74.0" font-family="sans-serif" font-size="14" text-anchor="middle" fill="#1a1a1a" font-weight="600">1 - wie auf deinem Foto, von oben</text>
<text x="92.5" y="148.5" font-family="sans-serif" font-size="12" text-anchor="middle" fill="#fff">Rad</text>
<text x="302.5" y="262.2" font-family="sans-serif" font-size="12" text-anchor="middle" fill="#fff">Griff</text>
<rect x="266.3" y="315.6" width="159.2" height="66.5" rx="5" fill="#e5dcf2" fill-opacity="0.75" stroke="#7d3fa8" stroke-width="2"/>
<text x="345.9" y="348.9" font-family="sans-serif" font-size="12" text-anchor="middle" fill="#4b2570" font-weight="600">Hot Wheels</text>
<polygon points="146.0,322.7 144.6,322.6 143.3,322.3 141.9,321.9 140.7,321.3 139.6,320.5 138.5,319.6 137.6,318.6 136.9,317.5 136.3,316.2 135.8,314.9 135.6,313.6 135.5,312.2 135.5,253.8 135.6,252.4 135.8,251.0 136.3,249.7 136.9,248.5 137.6,247.4 138.5,246.3 139.6,245.4 140.7,244.7 141.9,244.1 143.3,243.6 144.6,243.3 146.0,243.3 197.1,243.3 198.4,243.3 199.8,243.6 201.1,244.1 202.3,244.7 203.5,245.4 204.5,246.3 205.4,247.4 206.2,248.5 206.8,249.7 207.2,251.0 207.5,252.4 207.6,253.8 207.6,312.2 207.5,313.6 207.2,314.9 206.8,316.2 206.2,317.5 205.4,318.6 204.5,319.6 203.5,320.5 202.3,321.3 201.1,321.9 199.8,322.3 198.4,322.6 197.1,322.7" fill="none" stroke="#12a150" stroke-width="2" stroke-dasharray="5,4"/>
<text x="171.5" y="287.0" font-family="sans-serif" font-size="11" text-anchor="middle" fill="#0b6b36" font-weight="600">Abzug</text>
<polygon points="985.6,107.4 985.6,105.9 985.3,104.4 984.8,103.0 984.1,101.7 983.3,100.4 982.3,99.3 981.2,98.3 980.0,97.5 978.6,96.9 977.2,96.4 975.8,96.1 974.3,96.0 631.4,96.0 629.9,96.1 628.4,96.4 627.0,96.9 625.7,97.5 624.4,98.3 623.3,99.3 622.3,100.4 621.5,101.7 620.9,103.0 620.4,104.4 620.1,105.9 620.0,107.4 620.0,411.2 620.1,412.7 620.4,414.2 620.9,415.6 621.5,416.9 622.3,418.2 623.3,419.3 624.4,420.3 625.7,421.1 627.0,421.7 628.4,422.2 629.9,422.5 631.4,422.6 974.3,422.6 975.8,422.5 977.2,422.2 978.6,421.7 980.0,421.1 981.2,420.3 982.3,419.3 983.3,418.2 984.1,416.9 984.8,415.6 985.3,414.2 985.6,412.7 985.6,411.2" fill="#f2f2ef" stroke="#b8bcc2" stroke-width="1.4"/>
<polygon points="630.1,389.5 630.4,393.6 630.9,397.2 631.6,400.3 632.5,402.9 633.7,405.0 635.1,406.7 636.7,407.8 638.2,408.7 639.9,409.6 641.6,410.3 643.3,410.9 645.1,411.4 647.0,411.8 648.9,412.1 650.8,412.3 654.4,412.4 659.5,412.3 666.2,412.1 674.4,411.8 684.3,411.3 695.7,410.7 708.7,410.0 723.2,409.1 736.3,408.3 747.8,407.5 757.8,406.7 766.2,405.9 773.2,405.2 778.6,404.5 782.5,403.8 784.9,403.1 786.9,402.2 788.6,401.2 790.0,400.1 791.0,398.7 791.6,397.2 791.8,395.5 791.6,393.7 791.1,391.9 790.3,390.0 789.4,388.0 788.3,385.9 787.0,383.8 785.5,381.5 783.8,379.2 782.0,376.8 779.9,374.2 777.6,371.9 775.1,369.8 772.4,367.9 769.5,366.2 766.4,364.7 763.0,363.5 759.5,362.5 755.8,361.7 752.4,360.9 749.4,360.2 746.8,359.5 744.5,358.9 742.5,358.2 740.9,357.6 739.7,357.1 737.5,356.0 736.0,355.4 734.2,354.9 732.3,354.4 730.1,353.9 727.6,353.4 725.0,352.9 722.0,352.5 719.5,352.0 717.2,351.6 715.3,351.2 713.7,350.8 712.4,350.4 711.0,349.8 711.1,348.6 711.5,345.6 712.4,341.2 713.6,335.4 715.3,328.2 717.3,319.7 719.7,309.9 722.5,298.6 725.2,288.6 727.7,279.7 730.1,272.0 732.3,265.5 734.3,260.1 736.2,256.0 737.9,253.0 739.5,251.1 740.9,248.9 742.0,246.4 742.8,243.6 743.2,240.6 743.3,237.4 743.2,233.9 742.7,230.5 752.6,217.4 771.0,205.3 772.9,205.1 791.0,207.9 801.6,192.0 807.3,191.8 812.7,191.3 817.5,190.9 821.6,190.4 825.1,189.9 827.9,189.3 830.1,188.7 831.7,188.0 833.3,186.9 834.7,185.4 836.1,183.5 837.3,181.2 838.6,178.5 839.7,175.4 840.8,171.9 841.8,168.0 842.8,164.4 843.5,161.2 844.2,158.2 844.8,155.5 845.2,153.1 845.5,151.0 845.7,149.2 845.7,147.7 845.6,145.9 845.3,143.9 844.8,141.7 844.1,139.3 843.2,136.6 842.2,133.8 841.0,130.7 839.6,127.4 838.0,124.3 836.2,121.5 834.3,119.0 832.2,116.7 829.9,114.7 827.4,113.0 824.7,111.6 821.9,110.5 819.2,109.5 816.7,108.7 814.2,107.9 811.8,107.3 809.6,106.9 807.4,106.5 805.3,106.3 803.4,106.2 801.5,106.2 799.6,106.2 797.8,106.4 796.1,106.6 794.4,106.9 792.8,107.3 791.2,107.7 789.7,108.3 788.2,108.9 786.7,109.6 785.1,110.4 783.6,111.3 782.1,112.2 780.5,113.3 779.0,114.4 777.5,115.6 774.7,116.8 770.3,118.2 764.3,119.6 756.9,121.2 748.0,122.9 737.6,124.6 725.8,126.5 712.4,128.5 700.5,130.4 689.9,132.2 680.8,134.0 673.0,135.7 666.6,137.3 661.6,138.9 658.0,140.5 655.8,142.0 653.7,143.6 651.9,145.4 650.2,147.3 648.8,149.3 647.5,151.5 646.3,153.8 645.4,156.2 644.6,158.7 644.0,161.1 643.5,163.2 643.0,165.2 642.7,167.0 642.5,168.6 642.5,170.1 642.5,171.4 642.7,172.6 643.4,174.2 644.6,175.9 646.2,178.0 648.4,180.3 651.0,183.0 654.1,186.0 657.7,189.3 661.8,192.9 665.4,196.2 668.6,199.2 671.3,202.0 673.6,204.4 675.5,206.5 676.9,208.4 677.8,209.9 678.3,211.2 678.8,212.5 679.2,213.8 679.5,215.1 679.8,216.4 680.1,217.8 680.2,219.2 680.3,220.5 680.3,221.9 680.3,223.4 680.2,225.0 680.0,226.6 679.8,228.4 679.4,230.3 679.0,232.3 678.6,234.4 678.0,236.5 677.1,239.3 675.8,242.7 674.2,246.8 672.2,251.5 669.8,256.8 667.0,262.8 663.9,269.3 660.4,276.5 657.2,283.3 654.2,289.6 651.5,295.4 649.1,300.8 647.0,305.8 645.1,310.3 643.5,314.3 642.2,317.9 640.9,321.5 639.7,325.2 638.5,328.9 637.4,332.7 636.3,336.5 635.4,340.4 634.4,344.3 633.5,348.3 632.8,352.4 632.1,356.7 631.5,361.1 631.0,365.6 630.6,370.2 630.3,375.0 630.1,379.9 630.0,384.9" fill="#c8663f" stroke="#8d4225" stroke-width="1.4"/>
<rect x="798.2" y="289.8" width="54.0" height="129.2" rx="6" fill="#e5dcf2" stroke="#7d3fa8" stroke-width="1.6"/>
<rect x="863.5" y="254.6" width="54.0" height="129.2" rx="6" fill="#e5dcf2" stroke="#7d3fa8" stroke-width="1.6"/>
<rect x="928.1" y="254.6" width="54.0" height="129.2" rx="6" fill="#e5dcf2" stroke="#7d3fa8" stroke-width="1.6"/>
<rect x="860.0" y="96.0" width="125.7" height="155.1" fill="#b1483f" stroke="#7d2a23" stroke-width="1.4"/>
<text x="802.8" y="74.0" font-family="sans-serif" font-size="14" text-anchor="middle" fill="#1a1a1a" font-weight="600">2 - dieselbe Form in der Wanne (90 Grad gedreht)</text>
<text x="771.3" y="138.9" font-family="sans-serif" font-size="12" text-anchor="middle" fill="#fff">Rad</text>
<text x="714.3" y="400.2" font-family="sans-serif" font-size="12" text-anchor="middle" fill="#fff">Griff</text>
<text x="922.8" y="173.5" font-family="sans-serif" font-size="12" text-anchor="middle" fill="#fff" font-weight="600">Auto-Box</text>
<text x="310.0" y="436.0" font-family="sans-serif" font-size="14" text-anchor="middle" fill="#1a1a1a" font-weight="600">3 - Hoehenschnitt: was steckt drin, was ragt heraus</text>
<rect x="124.0" y="544.0" width="26.0" height="156.0" fill="#dfe1e4" stroke="#8a8f96"/>
<rect x="320.0" y="544.0" width="26.0" height="156.0" fill="#dfe1e4" stroke="#8a8f96"/>
<rect x="124.0" y="460.0" width="222.0" height="84.0" fill="none" stroke="#8a8f96" stroke-dasharray="5 4"/>
<rect x="150.0" y="532.0" width="105.0" height="168.0" fill="#c8663f"/>
<rect x="257.0" y="472.0" width="60.0" height="228.0" fill="#2b2b30"/>
<text x="202.0" y="558.0" font-family="sans-serif" font-size="12" text-anchor="middle" fill="#fff">Gehaeuse</text>
<text x="287.0" y="498.0" font-family="sans-serif" font-size="12" text-anchor="middle" fill="#fff">Rad</text>
<line x1="116.0" y1="700.0" x2="382.0" y2="700.0" stroke="#aaa" stroke-width="0.8" stroke-dasharray="3 3"/>
<text x="390.0" y="704.0" font-family="sans-serif" font-size="12" text-anchor="start" fill="#555">0  Muldenboden</text>
<line x1="116.0" y1="580.0" x2="382.0" y2="580.0" stroke="#aaa" stroke-width="0.8" stroke-dasharray="3 3"/>
<text x="390.0" y="584.0" font-family="sans-serif" font-size="12" text-anchor="start" fill="#555">30  Muldenkante</text>
<line x1="116.0" y1="544.0" x2="382.0" y2="544.0" stroke="#aaa" stroke-width="0.8" stroke-dasharray="3 3"/>
<text x="390.0" y="548.0" font-family="sans-serif" font-size="12" text-anchor="start" fill="#555">39  Wannenrand</text>
<line x1="116.0" y1="532.0" x2="382.0" y2="532.0" stroke="#aaa" stroke-width="0.8" stroke-dasharray="3 3"/>
<text x="390.0" y="536.0" font-family="sans-serif" font-size="12" text-anchor="start" fill="#555">42  Gehaeuse</text>
<line x1="116.0" y1="472.0" x2="382.0" y2="472.0" stroke="#aaa" stroke-width="0.8" stroke-dasharray="3 3"/>
<text x="390.0" y="476.0" font-family="sans-serif" font-size="12" text-anchor="start" fill="#555">57  Rad</text>
<line x1="116.0" y1="460.0" x2="382.0" y2="460.0" stroke="#aaa" stroke-width="0.8" stroke-dasharray="3 3"/>
<text x="390.0" y="464.0" font-family="sans-serif" font-size="12" text-anchor="start" fill="#555">60  Deckeldecke</text>
<text x="620.0" y="560.0" font-family="sans-serif" font-size="13" text-anchor="start" fill="#444">Der Controller ist 42 mm dick, die Mulde nur 30 mm tief.</text>
<text x="620.0" y="582.0" font-family="sans-serif" font-size="13" text-anchor="start" fill="#444">Er steckt also 30 mm in der Mulde und steht 12 mm heraus,</text>
<text x="620.0" y="604.0" font-family="sans-serif" font-size="13" text-anchor="start" fill="#444">das Drehrad 27 mm. Ueber dem Wannenrand hat der Deckel</text>
<text x="620.0" y="626.0" font-family="sans-serif" font-size="13" text-anchor="start" fill="#444">21 mm lichte Hoehe - beides passt hinein, das Rad mit</text>
<text x="620.0" y="648.0" font-family="sans-serif" font-size="13" text-anchor="start" fill="#444">3 mm Luft. Deshalb Rad nach OBEN einlegen.</text>
</svg>