<svg xmlns="http://www.w3.org/2000/svg" width="603" height="672">
<rect width="100%" height="100%" fill="#f4efe8"/>
<text x="301" y="18" font-family="sans-serif" font-size="14" font-weight="600" text-anchor="middle" fill="#333">Tuerschild "Elsie" -- Buchstabe 240 mm hoch, Schriftzug 221 mm breit</text>
<path d="M 162.2 604.6 L 215.4 593.0 L 215.4 102.5 L 162.2 91.4 L 162.2 60.0 L 515.4 60.0 L 515.4 206.5 L 487.3 206.5 L 477.4 113.3 L 470.1 112.1 L 462.3 111.1 L 453.8 110.2 L 444.7 109.4 L 435.0 108.8 L 424.7 108.2 L 413.7 107.8 L 402.2 107.5 L 390.0 107.3 L 377.2 107.2 L 312.8 107.2 L 312.8 318.6 L 421.4 318.6 L 431.0 255.0 L 458.5 255.0 L 458.5 432.0 L 431.0 432.0 L 421.4 366.7 L 312.8 366.7 L 312.8 588.8 L 391.1 588.8 L 406.5 588.7 L 420.8 588.5 L 434.0 588.1 L 446.1 587.7 L 457.1 587.0 L 467.0 586.3 L 475.8 585.4 L 483.5 584.4 L 490.1 583.2 L 495.6 581.9 L 513.2 475.4 L 541.4 475.4 L 535.5 636.0 L 162.2 636.0 Z " fill="#b9a09a" fill-rule="evenodd" transform="translate(3,3)"/>
<path d="M 162.2 604.6 L 215.4 593.0 L 215.4 102.5 L 162.2 91.4 L 162.2 60.0 L 515.4 60.0 L 515.4 206.5 L 487.3 206.5 L 477.4 113.3 L 470.1 112.1 L 462.3 111.1 L 453.8 110.2 L 444.7 109.4 L 435.0 108.8 L 424.7 108.2 L 413.7 107.8 L 402.2 107.5 L 390.0 107.3 L 377.2 107.2 L 312.8 107.2 L 312.8 318.6 L 421.4 318.6 L 431.0 255.0 L 458.5 255.0 L 458.5 432.0 L 431.0 432.0 L 421.4 366.7 L 312.8 366.7 L 312.8 588.8 L 391.1 588.8 L 406.5 588.7 L 420.8 588.5 L 434.0 588.1 L 446.1 587.7 L 457.1 587.0 L 467.0 586.3 L 475.8 585.4 L 483.5 584.4 L 490.1 583.2 L 495.6 581.9 L 513.2 475.4 L 541.4 475.4 L 535.5 636.0 L 162.2 636.0 Z " fill="#e8a9b5" fill-rule="evenodd" stroke="#d48fa0" stroke-width="0.6"/>
<path d="M 102.2 577.1 L 98.3 577.1 L 94.5 576.8 L 90.7 576.4 L 87.1 575.9 L 83.6 575.2 L 80.1 574.3 L 76.8 573.3 L 73.6 572.1 L 70.4 570.7 L 67.4 569.2 L 64.5 567.6 L 61.7 565.8 L 59.1 564.0 L 56.5 562.0 L 54.2 560.0 L 51.9 557.8 L 49.8 555.5 L 47.8 553.1 L 46.0 550.7 L 44.2 548.1 L 42.7 545.4 L 41.3 542.7 L 40.0 539.9 L 39.0 537.0 L 38.1 534.1 L 37.3 531.2 L 36.7 528.1 L 36.3 525.0 L 36.1 521.9 L 36.0 518.7 L 36.1 516.0 L 36.2 513.2 L 36.5 510.5 L 36.9 507.8 L 37.5 505.1 L 38.1 502.4 L 38.9 499.7 L 39.8 497.0 L 40.8 494.3 L 41.9 491.6 L 43.1 489.0 L 44.5 486.4 L 45.9 483.8 L 47.4 481.3 L 49.0 478.8 L 50.7 476.4 L 52.5 474.1 L 54.4 471.7 L 56.4 469.5 L 58.5 467.2 L 60.7 465.1 L 63.0 462.9 L 65.3 460.9 L 67.7 458.9 L 70.2 457.0 L 72.8 455.2 L 75.4 453.4 L 78.1 451.8 L 80.9 450.1 L 83.7 448.6 L 86.6 447.1 L 89.6 445.7 L 92.6 444.5 L 95.7 443.3 L 98.9 442.2 L 102.0 441.3 L 105.3 440.4 L 108.6 439.7 L 111.9 439.0 L 115.3 438.5 L 113.1 436.5 L 111.0 434.4 L 109.1 432.3 L 107.2 430.2 L 105.5 428.0 L 103.9 425.7 L 102.4 423.5 L 101.0 421.2 L 99.7 418.8 L 98.5 416.4 L 97.4 414.0 L 96.5 411.5 L 95.6 409.1 L 94.9 406.6 L 94.3 404.1 L 93.8 401.6 L 93.4 399.1 L 93.1 396.6 L 93.0 394.1 L 92.9 391.5 L 93.0 388.2 L 93.2 385.0 L 93.7 381.8 L 94.2 378.6 L 95.0 375.4 L 95.9 372.3 L 97.0 369.2 L 98.3 366.1 L 99.7 363.1 L 101.3 360.1 L 103.0 357.2 L 104.9 354.4 L 107.0 351.7 L 109.1 349.1 L 111.4 346.6 L 113.8 344.2 L 116.4 342.0 L 119.1 339.8 L 122.0 337.8 L 124.9 335.9 L 128.0 334.1 L 131.2 332.5 L 134.5 331.1 L 137.9 329.9 L 141.4 328.9 L 145.0 328.0 L 148.7 327.4 L 152.5 326.9 L 156.4 326.6 L 160.4 326.5 L 164.1 326.6 L 167.6 326.9 L 171.0 327.3 L 174.2 328.0 L 177.2 328.8 L 180.0 329.8 L 182.7 331.0 L 185.2 332.4 L 187.5 334.0 L 189.6 335.7 L 191.6 337.6 L 193.3 339.7 L 194.8 341.9 L 196.2 344.4 L 197.3 346.9 L 198.2 349.7 L 198.9 352.6 L 199.5 355.6 L 199.8 358.9 L 199.9 362.3 L 199.8 364.7 L 199.7 367.1 L 199.5 369.5 L 199.2 371.8 L 198.8 374.1 L 198.3 376.4 L 197.7 378.7 L 197.1 381.0 L 196.3 383.2 L 195.5 385.4 L 194.6 387.6 L 193.7 389.7 L 192.8 391.7 L 191.8 393.6 L 190.7 395.4 L 189.7 397.2 L 188.6 398.8 L 187.5 400.4 L 186.3 401.9 L 185.1 403.3 L 183.9 404.6 L 182.7 405.8 L 181.5 406.8 L 180.3 407.7 L 179.1 408.5 L 177.9 409.1 L 176.7 409.6 L 175.5 409.9 L 174.3 410.1 L 173.1 410.2 L 172.3 410.1 L 171.4 410.0 L 170.6 409.8 L 169.7 409.5 L 168.9 409.2 L 168.1 408.8 L 167.3 408.3 L 166.5 407.7 L 165.7 407.0 L 164.9 406.3 L 164.1 405.5 L 163.4 404.7 L 162.7 403.9 L 162.0 403.0 L 161.3 402.1 L 160.6 401.2 L 160.0 400.3 L 159.4 399.4 L 158.8 398.4 L 158.2 397.4 L 160.5 395.5 L 162.7 393.6 L 164.8 391.7 L 166.8 389.8 L 168.8 387.8 L 170.7 385.8 L 172.6 383.7 L 174.3 381.7 L 176.0 379.6 L 177.6 377.5 L 179.1 375.4 L 180.5 373.3 L 181.7 371.1 L 182.7 369.0 L 183.6 366.8 L 184.3 364.6 L 184.9 362.4 L 185.2 360.2 L 185.5 358.0 L 185.6 355.8 L 185.5 353.9 L 185.3 352.2 L 185.0 350.6 L 184.6 349.0 L 184.0 347.6 L 183.3 346.2 L 182.5 344.9 L 181.6 343.7 L 180.5 342.6 L 179.3 341.6 L 178.1 340.7 L 176.7 339.9 L 175.3 339.1 L 173.8 338.5 L 172.2 338.0 L 170.5 337.6 L 168.8 337.2 L 167.0 337.0 L 165.1 336.8 L 163.2 336.8 L 160.4 336.9 L 157.8 337.1 L 155.2 337.6 L 152.7 338.2 L 150.3 338.9 L 148.0 339.9 L 145.8 341.0 L 143.7 342.3 L 141.6 343.7 L 139.7 345.3 L 137.9 347.1 L 136.1 348.9 L 134.4 350.9 L 132.9 352.9 L 131.4 355.1 L 130.0 357.3 L 128.7 359.6 L 127.5 362.0 L 126.4 364.5 L 125.4 367.1 L 124.5 369.8 L 123.7 372.4 L 122.9 375.1 L 122.3 377.8 L 121.8 380.5 L 121.3 383.2 L 121.0 386.0 L 120.8 388.7 L 120.6 391.5 L 120.6 394.3 L 120.6 397.0 L 120.8 399.7 L 121.0 402.3 L 121.4 405.0 L 121.8 407.7 L 122.4 410.4 L 123.0 413.1 L 123.8 415.8 L 124.6 418.5 L 125.6 421.2 L 126.6 423.9 L 127.9 426.5 L 129.3 429.0 L 130.8 431.5 L 132.6 433.8 L 134.4 436.2 L 136.5 438.4 L 138.7 440.6 L 141.1 442.7 L 143.6 444.7 L 139.2 445.5 L 134.9 446.4 L 130.7 447.5 L 126.6 448.8 L 122.7 450.2 L 118.8 451.9 L 115.1 453.7 L 111.5 455.6 L 108.1 457.8 L 104.7 460.1 L 101.5 462.5 L 98.4 465.0 L 95.5 467.6 L 92.7 470.3 L 90.1 473.0 L 87.6 475.8 L 85.3 478.7 L 83.1 481.7 L 81.1 484.8 L 79.2 487.9 L 77.5 491.1 L 76.0 494.2 L 74.6 497.4 L 73.5 500.5 L 72.5 503.7 L 71.6 506.8 L 71.0 510.0 L 70.6 513.1 L 70.3 516.2 L 70.2 519.3 L 70.2 521.2 L 70.4 523.1 L 70.6 525.0 L 70.8 526.9 L 71.2 528.9 L 71.6 530.8 L 72.1 532.8 L 72.7 534.8 L 73.4 536.9 L 74.1 538.9 L 74.9 540.9 L 75.8 542.9 L 76.9 544.8 L 78.0 546.6 L 79.2 548.3 L 80.5 550.0 L 82.0 551.7 L 83.5 553.2 L 85.1 554.7 L 86.8 556.2 L 88.7 557.5 L 90.6 558.7 L 92.7 559.7 L 94.9 560.6 L 97.2 561.4 L 99.7 562.0 L 102.2 562.5 L 104.9 562.9 L 107.7 563.1 L 110.6 563.2 L 114.0 563.1 L 117.4 562.8 L 120.8 562.3 L 124.2 561.6 L 127.6 560.8 L 130.9 559.7 L 134.3 558.5 L 137.6 557.1 L 140.9 555.5 L 144.2 553.7 L 147.5 551.7 L 150.7 549.6 L 153.9 547.4 L 157.0 545.1 L 160.0 542.7 L 163.0 540.1 L 166.0 537.4 L 168.9 534.6 L 171.7 531.7 L 174.5 528.6 L 177.2 525.5 L 179.8 522.3 L 182.3 519.1 L 184.7 515.9 L 187.0 512.6 L 189.2 509.3 L 191.2 506.0 L 193.2 502.6 L 195.0 499.1 L 196.8 495.7 L 205.2 501.0 L 202.8 505.2 L 200.4 509.4 L 197.9 513.5 L 195.3 517.5 L 192.6 521.4 L 189.9 525.2 L 187.1 528.9 L 184.2 532.6 L 181.2 536.2 L 178.1 539.7 L 175.0 543.1 L 171.7 546.3 L 168.5 549.4 L 165.1 552.3 L 161.7 555.1 L 158.2 557.8 L 154.7 560.3 L 151.0 562.7 L 147.3 564.9 L 143.6 567.0 L 139.8 569.0 L 135.9 570.7 L 131.9 572.2 L 127.9 573.5 L 123.8 574.6 L 119.6 575.5 L 115.4 576.2 L 111.1 576.7 L 106.7 577.0 Z " fill="#b7aa96" fill-rule="evenodd" transform="translate(2.5,2.5)"/>
<path d="M 223.1 559.4 L 220.3 559.3 L 217.6 559.0 L 215.1 558.5 L 212.8 557.9 L 210.7 557.0 L 208.7 555.9 L 207.0 554.6 L 205.4 553.2 L 204.0 551.5 L 202.7 549.6 L 201.6 547.6 L 200.7 545.6 L 199.8 543.4 L 199.0 541.2 L 198.4 538.9 L 197.9 536.6 L 197.5 534.2 L 197.2 531.7 L 197.0 529.1 L 197.0 526.5 L 197.0 523.4 L 197.2 520.2 L 197.5 516.8 L 197.9 513.4 L 198.4 509.9 L 199.0 506.3 L 199.7 502.5 L 200.6 498.7 L 201.5 494.8 L 202.6 490.7 L 203.7 486.6 L 205.0 482.4 L 206.2 478.2 L 207.6 474.0 L 209.1 469.7 L 210.6 465.3 L 212.2 461.0 L 213.8 456.6 L 215.5 452.1 L 217.3 447.6 L 219.2 443.1 L 221.1 438.7 L 223.0 434.2 L 225.0 429.8 L 227.0 425.3 L 229.0 420.9 L 231.1 416.5 L 233.2 412.2 L 235.4 407.8 L 237.6 403.5 L 239.8 399.2 L 242.0 395.0 L 244.2 390.9 L 246.4 386.9 L 248.6 382.9 L 250.9 379.1 L 253.1 375.3 L 255.3 371.6 L 257.5 368.0 L 259.8 364.5 L 262.0 361.0 L 264.2 357.8 L 266.3 354.6 L 268.5 351.6 L 270.6 348.8 L 272.6 346.1 L 274.6 343.5 L 276.6 341.1 L 278.5 338.8 L 280.5 336.6 L 282.3 334.6 L 284.1 332.9 L 285.8 331.3 L 287.5 330.0 L 289.1 328.8 L 290.6 327.9 L 292.0 327.1 L 293.3 326.6 L 294.6 326.3 L 295.9 326.2 L 296.7 326.3 L 297.4 326.4 L 298.2 326.6 L 298.9 326.9 L 299.6 327.3 L 300.3 327.7 L 300.9 328.3 L 301.5 328.9 L 302.1 329.6 L 302.7 330.4 L 303.2 331.3 L 303.8 332.2 L 304.3 333.1 L 304.8 334.0 L 305.2 335.0 L 305.7 336.0 L 306.1 337.0 L 306.5 338.1 L 306.9 339.2 L 307.2 340.4 L 307.5 341.5 L 307.8 342.6 L 308.1 343.7 L 308.3 344.8 L 308.5 345.9 L 308.6 347.0 L 308.8 348.0 L 308.8 349.1 L 308.9 350.1 L 308.9 351.1 L 308.9 352.8 L 308.7 354.7 L 308.5 356.6 L 308.2 358.6 L 307.9 360.8 L 307.4 363.0 L 306.9 365.4 L 306.2 367.8 L 305.5 370.4 L 304.7 373.0 L 303.8 375.7 L 302.9 378.5 L 301.9 381.4 L 300.8 384.3 L 299.7 387.2 L 298.4 390.2 L 297.2 393.2 L 295.8 396.3 L 294.4 399.5 L 292.9 402.7 L 291.3 405.9 L 289.7 409.2 L 288.1 412.5 L 286.4 415.8 L 284.6 419.1 L 282.8 422.4 L 280.9 425.7 L 278.9 429.1 L 276.9 432.4 L 274.9 435.8 L 272.8 439.2 L 270.6 442.5 L 268.4 445.8 L 266.2 449.1 L 263.9 452.3 L 261.6 455.5 L 259.2 458.7 L 256.8 461.8 L 254.4 464.9 L 251.9 468.0 L 249.3 471.0 L 246.7 473.9 L 244.1 476.8 L 241.5 479.5 L 238.8 482.2 L 236.1 484.8 L 233.4 487.4 L 230.6 489.8 L 227.8 492.2 L 225.0 494.4 L 224.7 496.0 L 224.5 497.5 L 224.2 499.1 L 224.0 500.6 L 223.8 502.2 L 223.5 503.7 L 223.3 505.2 L 223.1 506.8 L 222.8 508.3 L 222.6 509.8 L 222.4 511.3 L 222.2 512.8 L 222.1 514.3 L 221.9 515.7 L 221.8 517.1 L 221.7 518.5 L 221.6 519.8 L 221.6 521.1 L 221.5 522.4 L 221.5 523.7 L 221.6 525.8 L 221.7 527.9 L 221.9 529.8 L 222.1 531.7 L 222.5 533.3 L 222.9 534.9 L 223.4 536.4 L 223.9 537.7 L 224.6 538.9 L 225.3 540.0 L 226.0 541.0 L 226.8 541.8 L 227.7 542.6 L 228.6 543.3 L 229.5 543.8 L 230.5 544.3 L 231.6 544.7 L 232.6 544.9 L 233.7 545.1 L 234.9 545.1 L 236.5 545.0 L 238.0 544.8 L 239.6 544.5 L 241.2 544.0 L 242.8 543.3 L 244.4 542.5 L 246.0 541.5 L 247.6 540.4 L 249.3 539.2 L 250.9 537.8 L 252.6 536.3 L 254.2 534.7 L 255.8 533.1 L 257.4 531.3 L 259.0 529.5 L 260.6 527.6 L 262.2 525.6 L 263.7 523.5 L 265.3 521.4 L 266.8 519.2 L 268.3 516.9 L 269.7 514.6 L 271.2 512.3 L 272.6 510.0 L 273.9 507.6 L 275.2 505.3 L 276.5 502.9 L 277.7 500.5 L 278.9 498.1 L 280.0 495.7 L 287.5 499.7 L 284.8 505.1 L 282.0 510.3 L 279.2 515.3 L 276.3 520.0 L 273.3 524.5 L 270.3 528.7 L 267.2 532.8 L 264.1 536.5 L 260.9 540.1 L 257.6 543.4 L 254.3 546.5 L 251.0 549.2 L 247.6 551.6 L 244.2 553.7 L 240.7 555.4 L 237.3 556.9 L 233.8 558.0 L 230.2 558.8 L 226.7 559.3 Z M 230.6 475.2 L 232.7 472.8 L 234.7 470.5 L 236.8 468.1 L 238.8 465.6 L 240.9 463.1 L 242.9 460.6 L 244.8 458.1 L 246.8 455.5 L 248.7 452.8 L 250.6 450.1 L 252.5 447.4 L 254.3 444.7 L 256.2 442.0 L 258.0 439.2 L 259.7 436.5 L 261.4 433.7 L 263.1 431.0 L 264.8 428.2 L 266.4 425.4 L 268.0 422.6 L 269.6 419.8 L 271.1 417.0 L 272.6 414.3 L 274.0 411.6 L 275.4 408.8 L 276.8 406.2 L 278.1 403.5 L 279.4 400.8 L 280.7 398.2 L 281.9 395.6 L 283.0 393.0 L 284.1 390.4 L 285.2 388.0 L 286.2 385.5 L 287.1 383.2 L 288.0 380.8 L 288.8 378.6 L 289.6 376.3 L 290.4 374.2 L 291.0 372.1 L 291.7 370.0 L 292.2 368.1 L 292.7 366.2 L 293.2 364.4 L 293.6 362.7 L 293.9 361.1 L 294.2 359.6 L 294.4 358.1 L 294.5 356.7 L 294.6 355.4 L 294.6 355.3 L 294.6 355.1 L 294.6 355.0 L 294.6 354.8 L 294.6 354.7 L 294.6 354.5 L 294.1 354.6 L 293.5 354.8 L 292.9 355.1 L 292.1 355.6 L 291.4 356.3 L 290.6 357.0 L 289.7 357.9 L 288.7 359.0 L 287.7 360.2 L 286.7 361.5 L 285.6 363.0 L 284.4 364.5 L 283.2 366.2 L 282.0 367.9 L 280.7 369.8 L 279.4 371.7 L 278.1 373.8 L 276.7 376.0 L 275.2 378.3 L 273.8 380.6 L 272.3 383.1 L 270.8 385.6 L 269.3 388.2 L 267.7 390.9 L 266.2 393.6 L 264.7 396.4 L 263.1 399.3 L 261.5 402.2 L 260.0 405.2 L 258.4 408.3 L 256.8 411.4 L 255.2 414.6 L 253.7 417.8 L 252.1 421.0 L 250.6 424.3 L 249.1 427.6 L 247.6 430.9 L 246.1 434.3 L 244.6 437.7 L 243.1 441.1 L 241.7 444.6 L 240.3 448.0 L 238.9 451.4 L 237.6 454.8 L 236.3 458.2 L 235.1 461.6 L 233.9 465.0 L 232.8 468.4 L 231.6 471.8 Z " fill="#b7aa96" fill-rule="evenodd" transform="translate(2.5,2.5)"/>
<path d="M 305.9 566.0 L 302.8 565.9 L 299.9 565.7 L 297.1 565.4 L 294.4 564.9 L 291.8 564.4 L 289.4 563.7 L 287.1 562.8 L 284.9 561.9 L 282.8 560.8 L 280.8 559.6 L 279.0 558.3 L 277.3 556.9 L 275.6 555.4 L 274.1 553.9 L 272.7 552.4 L 271.4 550.7 L 270.2 549.0 L 269.1 547.2 L 268.2 545.3 L 267.3 543.4 L 266.5 541.4 L 265.9 539.5 L 265.2 537.5 L 264.7 535.5 L 264.3 533.5 L 263.9 531.5 L 263.6 529.5 L 263.4 527.4 L 263.3 525.4 L 263.3 523.4 L 263.3 521.6 L 263.4 519.9 L 263.5 518.3 L 263.7 516.8 L 263.9 515.3 L 264.2 514.0 L 264.5 512.7 L 264.9 511.5 L 265.3 510.4 L 265.8 509.4 L 266.3 508.4 L 266.8 507.5 L 267.4 506.6 L 267.9 505.8 L 268.6 505.0 L 269.2 504.3 L 269.8 503.7 L 270.5 503.1 L 271.2 502.5 L 272.0 502.1 L 272.7 501.6 L 273.4 501.2 L 274.2 500.8 L 274.9 500.4 L 275.6 500.0 L 276.3 499.6 L 277.0 499.3 L 277.6 499.0 L 278.3 498.7 L 279.0 498.5 L 279.6 498.2 L 280.2 498.0 L 280.8 497.7 L 281.3 497.4 L 281.8 497.2 L 282.3 496.9 L 282.7 496.6 L 283.1 496.3 L 283.5 496.0 L 283.8 495.7 L 285.3 494.0 L 286.9 492.3 L 288.5 490.6 L 290.1 488.8 L 291.7 486.9 L 293.3 485.0 L 294.9 483.1 L 296.5 481.1 L 298.2 479.0 L 299.8 476.9 L 301.4 474.7 L 303.0 472.5 L 304.5 470.2 L 306.0 467.9 L 307.5 465.6 L 308.9 463.2 L 310.2 460.7 L 311.5 458.2 L 312.7 455.7 L 314.0 453.1 L 314.0 450.0 L 314.0 447.6 L 314.1 445.3 L 314.3 443.2 L 314.6 441.2 L 315.0 439.4 L 315.5 437.7 L 316.0 436.1 L 316.6 434.7 L 317.4 433.5 L 318.1 432.4 L 319.0 431.4 L 319.9 430.6 L 320.8 429.8 L 321.7 429.1 L 322.7 428.6 L 323.7 428.1 L 324.7 427.7 L 325.8 427.5 L 326.8 427.3 L 327.9 427.3 L 328.7 427.3 L 329.4 427.3 L 330.0 427.4 L 330.6 427.6 L 331.2 427.7 L 331.7 427.9 L 332.2 428.2 L 332.6 428.5 L 333.0 428.8 L 333.4 429.1 L 333.7 429.5 L 334.0 429.9 L 334.3 430.3 L 334.5 430.7 L 334.7 431.2 L 334.9 431.6 L 335.1 432.1 L 335.2 432.5 L 335.3 433.0 L 335.4 433.5 L 335.4 433.9 L 335.4 434.3 L 335.3 434.7 L 335.3 435.1 L 335.2 435.5 L 335.1 436.0 L 335.0 436.4 L 334.9 436.9 L 334.8 437.4 L 334.6 437.8 L 334.5 438.4 L 334.4 438.9 L 334.2 439.5 L 334.1 440.1 L 334.0 440.8 L 334.0 441.5 L 333.9 442.2 L 333.9 443.0 L 333.9 443.8 L 333.9 444.7 L 333.9 446.6 L 334.0 448.5 L 334.3 450.5 L 334.6 452.6 L 335.0 454.7 L 335.5 456.8 L 336.1 459.0 L 336.7 461.3 L 337.5 463.6 L 338.4 466.0 L 339.3 468.4 L 340.2 470.8 L 341.1 473.3 L 342.0 475.8 L 342.9 478.3 L 343.8 480.9 L 344.7 483.4 L 345.6 486.0 L 346.5 488.7 L 347.4 491.3 L 348.2 494.0 L 349.0 496.7 L 349.7 499.4 L 350.3 502.1 L 350.8 504.9 L 351.2 507.6 L 351.5 510.4 L 351.7 513.1 L 351.8 515.9 L 351.9 518.7 L 351.9 519.4 L 351.9 520.2 L 351.9 520.9 L 351.8 521.6 L 351.8 522.3 L 351.8 522.9 L 351.7 523.6 L 351.7 524.3 L 351.6 524.9 L 351.6 525.5 L 351.5 526.1 L 351.4 526.8 L 351.4 527.4 L 351.3 528.0 L 351.2 528.6 L 351.1 529.2 L 351.0 529.7 L 350.9 530.3 L 350.8 530.9 L 350.6 531.4 L 352.6 530.9 L 354.5 530.2 L 356.4 529.4 L 358.3 528.5 L 360.2 527.5 L 362.1 526.4 L 364.0 525.1 L 365.9 523.8 L 367.7 522.3 L 369.6 520.7 L 371.5 519.0 L 373.3 517.1 L 375.1 515.1 L 376.9 512.9 L 378.7 510.5 L 380.5 508.0 L 382.2 505.3 L 383.9 502.5 L 385.6 499.5 L 387.3 496.3 L 391.1 499.1 L 389.8 502.6 L 388.5 505.9 L 387.0 509.1 L 385.5 512.2 L 383.8 515.1 L 382.1 517.9 L 380.2 520.5 L 378.2 523.0 L 376.2 525.3 L 374.0 527.6 L 371.7 529.6 L 369.3 531.5 L 366.9 533.2 L 364.4 534.8 L 361.8 536.2 L 359.2 537.5 L 356.5 538.5 L 353.7 539.4 L 350.8 540.2 L 347.8 540.8 L 346.8 543.3 L 345.6 545.6 L 344.3 547.8 L 342.8 549.9 L 341.3 551.9 L 339.6 553.7 L 337.8 555.4 L 335.8 557.0 L 333.7 558.4 L 331.5 559.7 L 329.2 560.9 L 326.9 562.0 L 324.4 562.9 L 322.0 563.7 L 319.4 564.4 L 316.8 565.0 L 314.2 565.4 L 311.5 565.7 L 308.7 565.9 Z M 303.7 552.3 L 304.9 552.2 L 306.1 552.1 L 307.3 552.0 L 308.5 551.8 L 309.7 551.5 L 310.8 551.2 L 311.9 550.7 L 313.0 550.3 L 314.1 549.8 L 315.2 549.2 L 316.2 548.5 L 317.2 547.8 L 318.2 547.0 L 319.1 546.2 L 319.9 545.4 L 320.8 544.4 L 321.5 543.4 L 322.3 542.4 L 322.9 541.3 L 323.6 540.1 L 321.1 539.5 L 318.6 538.9 L 316.2 538.1 L 313.8 537.2 L 311.5 536.3 L 309.2 535.2 L 307.0 534.1 L 304.8 532.9 L 302.7 531.6 L 300.6 530.2 L 298.6 528.8 L 296.7 527.3 L 294.8 525.9 L 293.1 524.4 L 291.5 523.0 L 289.9 521.5 L 288.5 520.0 L 287.1 518.6 L 285.9 517.1 L 284.7 515.6 L 283.9 515.8 L 283.2 516.2 L 282.5 516.7 L 281.9 517.4 L 281.5 518.1 L 281.1 519.1 L 280.8 520.1 L 280.5 521.3 L 280.4 522.5 L 280.4 524.0 L 280.4 526.0 L 280.6 528.0 L 280.9 530.0 L 281.3 532.0 L 281.8 533.9 L 282.5 535.8 L 283.3 537.7 L 284.2 539.6 L 285.2 541.4 L 286.3 543.3 L 287.5 545.0 L 288.9 546.5 L 290.3 547.9 L 291.9 549.0 L 293.6 550.0 L 295.4 550.8 L 297.3 551.5 L 299.3 551.9 L 301.4 552.2 Z M 326.1 530.8 L 326.2 530.4 L 326.3 529.9 L 326.4 529.4 L 326.5 529.0 L 326.6 528.4 L 326.7 527.9 L 326.7 527.4 L 326.8 526.8 L 326.8 526.3 L 326.9 525.7 L 326.9 525.1 L 326.9 524.6 L 326.9 524.0 L 327.0 523.5 L 327.0 523.1 L 327.0 522.6 L 327.0 522.2 L 327.0 521.9 L 327.0 521.5 L 327.0 521.2 L 326.9 518.4 L 326.8 515.6 L 326.5 512.8 L 326.3 510.0 L 325.9 507.3 L 325.5 504.5 L 325.1 501.7 L 324.5 499.0 L 323.9 496.2 L 323.3 493.5 L 322.6 490.8 L 321.9 488.0 L 321.2 485.2 L 320.5 482.5 L 319.9 479.7 L 319.2 476.9 L 318.5 474.0 L 317.8 471.2 L 317.1 468.4 L 316.4 465.5 L 315.3 467.5 L 314.1 469.4 L 312.9 471.4 L 311.7 473.5 L 310.4 475.5 L 309.1 477.6 L 307.7 479.8 L 306.3 481.9 L 304.9 484.1 L 303.4 486.4 L 301.9 488.5 L 300.4 490.7 L 299.0 492.7 L 297.6 494.6 L 296.2 496.5 L 294.8 498.2 L 293.4 499.9 L 292.0 501.5 L 290.7 503.0 L 289.4 504.4 L 290.4 506.1 L 291.6 507.7 L 292.8 509.3 L 294.1 511.0 L 295.5 512.5 L 297.0 514.1 L 298.6 515.7 L 300.3 517.2 L 302.1 518.7 L 304.0 520.2 L 306.0 521.7 L 308.0 523.1 L 310.0 524.3 L 312.2 525.5 L 314.3 526.6 L 316.6 527.6 L 318.9 528.6 L 321.2 529.4 L 323.6 530.2 Z " fill="#b7aa96" fill-rule="evenodd" transform="translate(2.5,2.5)"/>
<path d="M 399.1 559.4 L 396.5 559.3 L 393.9 559.1 L 391.5 558.7 L 389.3 558.1 L 387.2 557.4 L 385.2 556.5 L 383.3 555.5 L 381.6 554.3 L 380.1 552.9 L 378.6 551.4 L 377.3 549.7 L 376.2 548.0 L 375.1 546.2 L 374.2 544.3 L 373.5 542.4 L 372.9 540.4 L 372.4 538.4 L 372.1 536.2 L 371.8 534.0 L 371.8 531.7 L 371.8 530.3 L 371.9 528.7 L 372.0 527.1 L 372.2 525.4 L 372.4 523.7 L 372.7 521.8 L 373.0 519.9 L 373.4 517.9 L 373.8 515.9 L 374.3 513.7 L 374.8 511.5 L 375.3 509.3 L 375.9 507.1 L 376.6 504.8 L 377.3 502.6 L 378.0 500.3 L 378.7 497.9 L 379.5 495.6 L 380.4 493.2 L 381.3 490.9 L 382.2 488.5 L 383.1 486.1 L 384.1 483.8 L 385.1 481.5 L 386.1 479.2 L 387.2 477.0 L 388.3 474.8 L 389.4 472.6 L 390.6 470.4 L 391.8 468.3 L 393.0 466.2 L 394.2 464.2 L 395.4 462.3 L 396.7 460.5 L 397.9 458.7 L 399.2 457.0 L 400.5 455.4 L 401.8 453.9 L 403.1 452.4 L 404.5 451.1 L 405.8 449.8 L 407.2 448.7 L 408.6 447.6 L 409.9 446.8 L 411.3 446.0 L 412.6 445.4 L 414.0 445.0 L 415.4 444.6 L 416.7 444.4 L 418.1 444.4 L 418.9 444.4 L 419.6 444.5 L 420.3 444.6 L 421.0 444.7 L 421.7 444.9 L 422.3 445.2 L 422.9 445.5 L 423.5 445.8 L 424.1 446.2 L 424.7 446.6 L 425.2 447.1 L 425.7 447.6 L 426.1 448.2 L 426.4 448.8 L 426.7 449.4 L 427.0 450.1 L 427.2 450.9 L 427.3 451.7 L 427.4 452.5 L 427.4 453.4 L 427.4 454.2 L 427.2 455.2 L 427.0 456.2 L 426.7 457.3 L 426.2 458.5 L 425.7 459.7 L 425.1 461.0 L 424.4 462.5 L 423.6 464.0 L 422.7 465.6 L 421.7 467.2 L 420.7 468.9 L 419.7 470.6 L 418.6 472.4 L 417.5 474.3 L 416.4 476.2 L 415.2 478.1 L 414.0 480.1 L 412.8 482.1 L 411.5 484.2 L 410.2 486.3 L 409.0 488.5 L 407.8 490.6 L 406.6 492.8 L 405.5 494.9 L 404.3 497.1 L 403.3 499.4 L 402.2 501.6 L 401.2 503.8 L 400.2 506.1 L 399.3 508.3 L 398.5 510.6 L 397.8 512.8 L 397.1 515.0 L 396.6 517.1 L 396.2 519.3 L 395.8 521.4 L 395.6 523.5 L 395.5 525.6 L 395.4 527.7 L 395.4 529.6 L 395.6 531.4 L 395.7 533.0 L 396.0 534.6 L 396.3 535.9 L 396.7 537.2 L 397.2 538.3 L 397.7 539.3 L 398.3 540.2 L 399.0 540.9 L 399.7 541.5 L 400.5 542.1 L 401.4 542.6 L 402.4 543.0 L 403.4 543.4 L 404.5 543.7 L 405.6 543.9 L 406.8 544.1 L 408.1 544.2 L 409.4 544.2 L 411.5 544.1 L 413.7 543.8 L 415.9 543.2 L 418.2 542.5 L 420.4 541.5 L 422.8 540.4 L 425.1 539.0 L 427.5 537.4 L 429.9 535.6 L 432.4 533.6 L 434.9 531.3 L 437.4 528.8 L 440.0 525.8 L 442.5 522.6 L 445.1 519.1 L 447.7 515.2 L 450.3 511.0 L 452.9 506.6 L 455.6 501.7 L 458.2 496.6 L 462.9 501.6 L 460.6 506.9 L 458.3 512.0 L 455.8 516.9 L 453.2 521.5 L 450.5 525.9 L 447.7 530.1 L 444.8 534.0 L 441.7 537.6 L 438.5 541.0 L 435.2 544.2 L 431.8 547.1 L 428.4 549.7 L 424.9 552.0 L 421.4 553.9 L 417.8 555.6 L 414.2 557.0 L 410.5 558.1 L 406.8 558.8 L 403.0 559.3 Z " fill="#b7aa96" fill-rule="evenodd" transform="translate(2.5,2.5)"/>
<path d="M 435.8 419.2 L 434.7 419.2 L 433.5 419.1 L 432.4 418.9 L 431.3 418.7 L 430.2 418.5 L 429.1 418.1 L 428.1 417.8 L 427.1 417.3 L 426.1 416.8 L 425.1 416.3 L 424.2 415.7 L 423.4 415.0 L 422.6 414.2 L 422.0 413.4 L 421.5 412.6 L 421.1 411.6 L 420.7 410.6 L 420.5 409.6 L 420.3 408.4 L 420.3 407.2 L 420.4 405.7 L 420.6 404.3 L 421.0 402.9 L 421.6 401.5 L 422.3 400.2 L 423.2 398.9 L 424.2 397.7 L 425.5 396.5 L 426.8 395.4 L 428.4 394.3 L 430.0 393.3 L 431.6 392.4 L 433.3 391.6 L 435.0 390.9 L 436.6 390.3 L 438.3 389.9 L 440.0 389.5 L 441.8 389.2 L 443.5 389.1 L 445.3 389.0 L 446.3 389.0 L 447.4 389.1 L 448.4 389.2 L 449.4 389.4 L 450.4 389.6 L 451.3 389.9 L 452.2 390.2 L 453.0 390.6 L 453.9 391.0 L 454.6 391.5 L 455.4 392.0 L 456.0 392.7 L 456.6 393.4 L 457.1 394.1 L 457.6 395.0 L 457.9 396.0 L 458.2 397.0 L 458.4 398.1 L 458.5 399.3 L 458.5 400.5 L 458.5 401.8 L 458.2 403.1 L 457.9 404.4 L 457.4 405.7 L 456.7 407.0 L 456.0 408.2 L 455.0 409.5 L 453.9 410.7 L 452.7 411.9 L 451.4 413.1 L 449.9 414.3 L 448.5 415.3 L 447.0 416.2 L 445.4 417.0 L 443.9 417.7 L 442.3 418.2 L 440.8 418.6 L 439.1 418.9 L 437.5 419.1 Z " fill="#b7aa96" fill-rule="evenodd" transform="translate(2.5,2.5)"/>
<path d="M 483.2 563.8 L 479.3 563.7 L 475.6 563.3 L 472.1 562.8 L 468.7 562.1 L 465.6 561.1 L 462.6 559.9 L 459.8 558.5 L 457.2 556.9 L 454.8 555.1 L 452.5 553.0 L 450.5 550.8 L 448.7 548.5 L 447.1 546.1 L 445.7 543.6 L 444.5 541.0 L 443.5 538.2 L 442.8 535.4 L 442.2 532.4 L 441.9 529.3 L 441.8 526.2 L 441.9 523.4 L 442.1 520.6 L 442.4 517.8 L 442.9 514.9 L 443.6 512.0 L 444.3 509.1 L 445.2 506.2 L 446.3 503.2 L 447.5 500.1 L 448.8 497.1 L 450.3 494.0 L 451.8 491.0 L 453.4 488.0 L 455.2 485.1 L 457.0 482.2 L 458.9 479.3 L 461.0 476.4 L 463.1 473.6 L 465.3 470.9 L 467.6 468.2 L 470.0 465.5 L 472.4 463.0 L 474.9 460.5 L 477.5 458.2 L 480.1 455.9 L 482.7 453.8 L 485.4 451.7 L 488.1 449.8 L 490.9 448.0 L 493.7 446.2 L 496.6 444.6 L 499.5 443.2 L 502.3 442.0 L 505.2 440.9 L 508.0 439.9 L 510.9 439.2 L 513.8 438.6 L 516.6 438.2 L 519.5 437.9 L 522.4 437.8 L 524.0 437.9 L 525.6 438.0 L 527.1 438.2 L 528.7 438.5 L 530.2 438.9 L 531.8 439.4 L 533.3 439.9 L 534.8 440.5 L 536.3 441.2 L 537.7 442.0 L 539.1 443.0 L 540.4 444.0 L 541.5 445.3 L 542.4 446.7 L 543.2 448.3 L 543.9 450.0 L 544.4 452.0 L 544.8 454.0 L 545.0 456.3 L 545.1 458.7 L 545.0 461.0 L 544.8 463.3 L 544.4 465.6 L 544.0 467.9 L 543.3 470.1 L 542.6 472.3 L 541.7 474.5 L 540.7 476.6 L 539.5 478.7 L 538.2 480.8 L 536.8 482.8 L 535.3 484.8 L 533.7 486.7 L 532.0 488.6 L 530.2 490.5 L 528.3 492.3 L 526.3 494.1 L 524.3 495.8 L 522.1 497.5 L 519.9 499.1 L 517.5 500.7 L 515.2 502.2 L 512.8 503.7 L 510.3 505.1 L 507.8 506.4 L 505.2 507.7 L 502.6 509.0 L 500.0 510.1 L 497.3 511.3 L 494.5 512.3 L 491.8 513.3 L 489.0 514.2 L 486.2 515.1 L 483.4 515.8 L 480.6 516.6 L 477.9 517.2 L 475.1 517.7 L 472.3 518.2 L 469.5 518.7 L 466.7 519.0 L 466.6 519.3 L 466.6 519.5 L 466.5 519.8 L 466.5 520.0 L 466.4 520.3 L 466.4 520.5 L 466.3 520.8 L 466.3 521.1 L 466.3 521.4 L 466.2 521.6 L 466.2 521.9 L 466.2 522.3 L 466.1 522.6 L 466.1 523.0 L 466.1 523.5 L 466.1 523.9 L 466.1 524.4 L 466.1 525.0 L 466.1 525.5 L 466.1 526.2 L 466.1 526.5 L 466.1 526.9 L 466.1 527.3 L 466.1 527.8 L 466.2 528.3 L 466.2 528.9 L 466.3 529.5 L 466.4 530.1 L 466.4 530.8 L 466.5 531.6 L 466.6 532.4 L 466.8 533.2 L 467.0 534.0 L 467.2 534.8 L 467.4 535.6 L 467.7 536.4 L 468.0 537.3 L 468.4 538.1 L 468.8 539.0 L 469.2 539.8 L 469.6 540.7 L 470.2 541.5 L 470.7 542.3 L 471.4 543.1 L 472.1 543.9 L 472.8 544.6 L 473.6 545.3 L 474.5 546.0 L 475.4 546.7 L 476.3 547.3 L 477.4 547.9 L 478.5 548.4 L 479.7 548.9 L 480.9 549.3 L 482.2 549.6 L 483.6 549.9 L 485.1 550.1 L 486.7 550.3 L 488.3 550.4 L 490.0 550.4 L 492.6 550.3 L 495.2 550.1 L 497.9 549.7 L 500.5 549.2 L 503.1 548.6 L 505.7 547.8 L 508.4 546.8 L 511.0 545.7 L 513.6 544.5 L 516.3 543.1 L 518.9 541.6 L 521.5 540.0 L 524.1 538.3 L 526.6 536.5 L 529.1 534.6 L 531.6 532.6 L 534.0 530.5 L 536.4 528.3 L 538.8 526.0 L 541.2 523.7 L 543.5 521.2 L 545.7 518.7 L 547.8 516.1 L 549.9 513.5 L 551.9 510.8 L 553.8 508.1 L 555.6 505.3 L 557.3 502.5 L 559.0 499.6 L 560.6 496.6 L 566.8 501.6 L 565.1 505.3 L 563.3 508.9 L 561.3 512.4 L 559.3 515.8 L 557.2 519.1 L 555.0 522.3 L 552.7 525.4 L 550.3 528.5 L 547.8 531.4 L 545.2 534.2 L 542.5 537.0 L 539.8 539.6 L 537.0 542.1 L 534.2 544.4 L 531.3 546.7 L 528.3 548.8 L 525.3 550.8 L 522.3 552.6 L 519.2 554.4 L 516.0 556.0 L 512.8 557.5 L 509.5 558.8 L 506.3 560.0 L 503.0 561.0 L 499.8 561.8 L 496.5 562.5 L 493.2 563.1 L 489.9 563.5 L 486.5 563.7 Z M 470.1 507.5 L 471.7 507.3 L 473.4 507.0 L 475.1 506.6 L 476.9 506.2 L 478.7 505.6 L 480.5 505.0 L 482.3 504.4 L 484.2 503.6 L 486.2 502.8 L 488.1 501.9 L 490.1 500.9 L 492.1 499.9 L 494.0 498.9 L 496.0 497.8 L 497.9 496.6 L 499.8 495.4 L 501.7 494.1 L 503.6 492.8 L 505.4 491.5 L 507.3 490.1 L 509.1 488.6 L 510.8 487.2 L 512.5 485.7 L 514.1 484.1 L 515.6 482.6 L 517.1 481.0 L 518.5 479.4 L 519.9 477.7 L 521.1 476.1 L 522.4 474.4 L 523.5 472.7 L 524.5 471.0 L 525.4 469.2 L 526.1 467.5 L 526.8 465.8 L 527.3 464.1 L 527.7 462.3 L 528.0 460.6 L 528.2 458.9 L 528.3 457.1 L 528.2 456.5 L 528.2 455.8 L 528.1 455.3 L 528.1 454.7 L 527.9 454.2 L 527.8 453.8 L 527.6 453.4 L 527.5 453.0 L 527.3 452.7 L 527.0 452.5 L 526.8 452.2 L 526.5 452.0 L 526.1 451.8 L 525.8 451.7 L 525.4 451.5 L 525.0 451.4 L 524.5 451.3 L 524.0 451.3 L 523.5 451.2 L 523.0 451.2 L 521.5 451.3 L 520.1 451.4 L 518.6 451.7 L 517.2 452.0 L 515.7 452.5 L 514.2 453.1 L 512.7 453.7 L 511.1 454.5 L 509.6 455.4 L 508.0 456.3 L 506.5 457.4 L 505.0 458.5 L 503.4 459.7 L 501.9 460.9 L 500.4 462.3 L 498.8 463.6 L 497.3 465.1 L 495.8 466.5 L 494.3 468.1 L 492.8 469.7 L 491.3 471.4 L 489.9 473.1 L 488.5 474.8 L 487.1 476.6 L 485.7 478.4 L 484.4 480.2 L 483.1 482.1 L 481.9 484.0 L 480.6 485.9 L 479.4 487.9 L 478.3 489.9 L 477.2 491.9 L 476.1 493.8 L 475.1 495.8 L 474.2 497.8 L 473.2 499.7 L 472.4 501.7 L 471.6 503.6 L 470.8 505.6 Z " fill="#b7aa96" fill-rule="evenodd" transform="translate(2.5,2.5)"/>
<path d="M 102.2 577.1 L 98.3 577.1 L 94.5 576.8 L 90.7 576.4 L 87.1 575.9 L 83.6 575.2 L 80.1 574.3 L 76.8 573.3 L 73.6 572.1 L 70.4 570.7 L 67.4 569.2 L 64.5 567.6 L 61.7 565.8 L 59.1 564.0 L 56.5 562.0 L 54.2 560.0 L 51.9 557.8 L 49.8 555.5 L 47.8 553.1 L 46.0 550.7 L 44.2 548.1 L 42.7 545.4 L 41.3 542.7 L 40.0 539.9 L 39.0 537.0 L 38.1 534.1 L 37.3 531.2 L 36.7 528.1 L 36.3 525.0 L 36.1 521.9 L 36.0 518.7 L 36.1 516.0 L 36.2 513.2 L 36.5 510.5 L 36.9 507.8 L 37.5 505.1 L 38.1 502.4 L 38.9 499.7 L 39.8 497.0 L 40.8 494.3 L 41.9 491.6 L 43.1 489.0 L 44.5 486.4 L 45.9 483.8 L 47.4 481.3 L 49.0 478.8 L 50.7 476.4 L 52.5 474.1 L 54.4 471.7 L 56.4 469.5 L 58.5 467.2 L 60.7 465.1 L 63.0 462.9 L 65.3 460.9 L 67.7 458.9 L 70.2 457.0 L 72.8 455.2 L 75.4 453.4 L 78.1 451.8 L 80.9 450.1 L 83.7 448.6 L 86.6 447.1 L 89.6 445.7 L 92.6 444.5 L 95.7 443.3 L 98.9 442.2 L 102.0 441.3 L 105.3 440.4 L 108.6 439.7 L 111.9 439.0 L 115.3 438.5 L 113.1 436.5 L 111.0 434.4 L 109.1 432.3 L 107.2 430.2 L 105.5 428.0 L 103.9 425.7 L 102.4 423.5 L 101.0 421.2 L 99.7 418.8 L 98.5 416.4 L 97.4 414.0 L 96.5 411.5 L 95.6 409.1 L 94.9 406.6 L 94.3 404.1 L 93.8 401.6 L 93.4 399.1 L 93.1 396.6 L 93.0 394.1 L 92.9 391.5 L 93.0 388.2 L 93.2 385.0 L 93.7 381.8 L 94.2 378.6 L 95.0 375.4 L 95.9 372.3 L 97.0 369.2 L 98.3 366.1 L 99.7 363.1 L 101.3 360.1 L 103.0 357.2 L 104.9 354.4 L 107.0 351.7 L 109.1 349.1 L 111.4 346.6 L 113.8 344.2 L 116.4 342.0 L 119.1 339.8 L 122.0 337.8 L 124.9 335.9 L 128.0 334.1 L 131.2 332.5 L 134.5 331.1 L 137.9 329.9 L 141.4 328.9 L 145.0 328.0 L 148.7 327.4 L 152.5 326.9 L 156.4 326.6 L 160.4 326.5 L 164.1 326.6 L 167.6 326.9 L 171.0 327.3 L 174.2 328.0 L 177.2 328.8 L 180.0 329.8 L 182.7 331.0 L 185.2 332.4 L 187.5 334.0 L 189.6 335.7 L 191.6 337.6 L 193.3 339.7 L 194.8 341.9 L 196.2 344.4 L 197.3 346.9 L 198.2 349.7 L 198.9 352.6 L 199.5 355.6 L 199.8 358.9 L 199.9 362.3 L 199.8 364.7 L 199.7 367.1 L 199.5 369.5 L 199.2 371.8 L 198.8 374.1 L 198.3 376.4 L 197.7 378.7 L 197.1 381.0 L 196.3 383.2 L 195.5 385.4 L 194.6 387.6 L 193.7 389.7 L 192.8 391.7 L 191.8 393.6 L 190.7 395.4 L 189.7 397.2 L 188.6 398.8 L 187.5 400.4 L 186.3 401.9 L 185.1 403.3 L 183.9 404.6 L 182.7 405.8 L 181.5 406.8 L 180.3 407.7 L 179.1 408.5 L 177.9 409.1 L 176.7 409.6 L 175.5 409.9 L 174.3 410.1 L 173.1 410.2 L 172.3 410.1 L 171.4 410.0 L 170.6 409.8 L 169.7 409.5 L 168.9 409.2 L 168.1 408.8 L 167.3 408.3 L 166.5 407.7 L 165.7 407.0 L 164.9 406.3 L 164.1 405.5 L 163.4 404.7 L 162.7 403.9 L 162.0 403.0 L 161.3 402.1 L 160.6 401.2 L 160.0 400.3 L 159.4 399.4 L 158.8 398.4 L 158.2 397.4 L 160.5 395.5 L 162.7 393.6 L 164.8 391.7 L 166.8 389.8 L 168.8 387.8 L 170.7 385.8 L 172.6 383.7 L 174.3 381.7 L 176.0 379.6 L 177.6 377.5 L 179.1 375.4 L 180.5 373.3 L 181.7 371.1 L 182.7 369.0 L 183.6 366.8 L 184.3 364.6 L 184.9 362.4 L 185.2 360.2 L 185.5 358.0 L 185.6 355.8 L 185.5 353.9 L 185.3 352.2 L 185.0 350.6 L 184.6 349.0 L 184.0 347.6 L 183.3 346.2 L 182.5 344.9 L 181.6 343.7 L 180.5 342.6 L 179.3 341.6 L 178.1 340.7 L 176.7 339.9 L 175.3 339.1 L 173.8 338.5 L 172.2 338.0 L 170.5 337.6 L 168.8 337.2 L 167.0 337.0 L 165.1 336.8 L 163.2 336.8 L 160.4 336.9 L 157.8 337.1 L 155.2 337.6 L 152.7 338.2 L 150.3 338.9 L 148.0 339.9 L 145.8 341.0 L 143.7 342.3 L 141.6 343.7 L 139.7 345.3 L 137.9 347.1 L 136.1 348.9 L 134.4 350.9 L 132.9 352.9 L 131.4 355.1 L 130.0 357.3 L 128.7 359.6 L 127.5 362.0 L 126.4 364.5 L 125.4 367.1 L 124.5 369.8 L 123.7 372.4 L 122.9 375.1 L 122.3 377.8 L 121.8 380.5 L 121.3 383.2 L 121.0 386.0 L 120.8 388.7 L 120.6 391.5 L 120.6 394.3 L 120.6 397.0 L 120.8 399.7 L 121.0 402.3 L 121.4 405.0 L 121.8 407.7 L 122.4 410.4 L 123.0 413.1 L 123.8 415.8 L 124.6 418.5 L 125.6 421.2 L 126.6 423.9 L 127.9 426.5 L 129.3 429.0 L 130.8 431.5 L 132.6 433.8 L 134.4 436.2 L 136.5 438.4 L 138.7 440.6 L 141.1 442.7 L 143.6 444.7 L 139.2 445.5 L 134.9 446.4 L 130.7 447.5 L 126.6 448.8 L 122.7 450.2 L 118.8 451.9 L 115.1 453.7 L 111.5 455.6 L 108.1 457.8 L 104.7 460.1 L 101.5 462.5 L 98.4 465.0 L 95.5 467.6 L 92.7 470.3 L 90.1 473.0 L 87.6 475.8 L 85.3 478.7 L 83.1 481.7 L 81.1 484.8 L 79.2 487.9 L 77.5 491.1 L 76.0 494.2 L 74.6 497.4 L 73.5 500.5 L 72.5 503.7 L 71.6 506.8 L 71.0 510.0 L 70.6 513.1 L 70.3 516.2 L 70.2 519.3 L 70.2 521.2 L 70.4 523.1 L 70.6 525.0 L 70.8 526.9 L 71.2 528.9 L 71.6 530.8 L 72.1 532.8 L 72.7 534.8 L 73.4 536.9 L 74.1 538.9 L 74.9 540.9 L 75.8 542.9 L 76.9 544.8 L 78.0 546.6 L 79.2 548.3 L 80.5 550.0 L 82.0 551.7 L 83.5 553.2 L 85.1 554.7 L 86.8 556.2 L 88.7 557.5 L 90.6 558.7 L 92.7 559.7 L 94.9 560.6 L 97.2 561.4 L 99.7 562.0 L 102.2 562.5 L 104.9 562.9 L 107.7 563.1 L 110.6 563.2 L 114.0 563.1 L 117.4 562.8 L 120.8 562.3 L 124.2 561.6 L 127.6 560.8 L 130.9 559.7 L 134.3 558.5 L 137.6 557.1 L 140.9 555.5 L 144.2 553.7 L 147.5 551.7 L 150.7 549.6 L 153.9 547.4 L 157.0 545.1 L 160.0 542.7 L 163.0 540.1 L 166.0 537.4 L 168.9 534.6 L 171.7 531.7 L 174.5 528.6 L 177.2 525.5 L 179.8 522.3 L 182.3 519.1 L 184.7 515.9 L 187.0 512.6 L 189.2 509.3 L 191.2 506.0 L 193.2 502.6 L 195.0 499.1 L 196.8 495.7 L 205.2 501.0 L 202.8 505.2 L 200.4 509.4 L 197.9 513.5 L 195.3 517.5 L 192.6 521.4 L 189.9 525.2 L 187.1 528.9 L 184.2 532.6 L 181.2 536.2 L 178.1 539.7 L 175.0 543.1 L 171.7 546.3 L 168.5 549.4 L 165.1 552.3 L 161.7 555.1 L 158.2 557.8 L 154.7 560.3 L 151.0 562.7 L 147.3 564.9 L 143.6 567.0 L 139.8 569.0 L 135.9 570.7 L 131.9 572.2 L 127.9 573.5 L 123.8 574.6 L 119.6 575.5 L 115.4 576.2 L 111.1 576.7 L 106.7 577.0 Z " fill="#f1e6d2" fill-rule="evenodd" stroke="#cdbfa6" stroke-width="0.6"/>
<path d="M 223.1 559.4 L 220.3 559.3 L 217.6 559.0 L 215.1 558.5 L 212.8 557.9 L 210.7 557.0 L 208.7 555.9 L 207.0 554.6 L 205.4 553.2 L 204.0 551.5 L 202.7 549.6 L 201.6 547.6 L 200.7 545.6 L 199.8 543.4 L 199.0 541.2 L 198.4 538.9 L 197.9 536.6 L 197.5 534.2 L 197.2 531.7 L 197.0 529.1 L 197.0 526.5 L 197.0 523.4 L 197.2 520.2 L 197.5 516.8 L 197.9 513.4 L 198.4 509.9 L 199.0 506.3 L 199.7 502.5 L 200.6 498.7 L 201.5 494.8 L 202.6 490.7 L 203.7 486.6 L 205.0 482.4 L 206.2 478.2 L 207.6 474.0 L 209.1 469.7 L 210.6 465.3 L 212.2 461.0 L 213.8 456.6 L 215.5 452.1 L 217.3 447.6 L 219.2 443.1 L 221.1 438.7 L 223.0 434.2 L 225.0 429.8 L 227.0 425.3 L 229.0 420.9 L 231.1 416.5 L 233.2 412.2 L 235.4 407.8 L 237.6 403.5 L 239.8 399.2 L 242.0 395.0 L 244.2 390.9 L 246.4 386.9 L 248.6 382.9 L 250.9 379.1 L 253.1 375.3 L 255.3 371.6 L 257.5 368.0 L 259.8 364.5 L 262.0 361.0 L 264.2 357.8 L 266.3 354.6 L 268.5 351.6 L 270.6 348.8 L 272.6 346.1 L 274.6 343.5 L 276.6 341.1 L 278.5 338.8 L 280.5 336.6 L 282.3 334.6 L 284.1 332.9 L 285.8 331.3 L 287.5 330.0 L 289.1 328.8 L 290.6 327.9 L 292.0 327.1 L 293.3 326.6 L 294.6 326.3 L 295.9 326.2 L 296.7 326.3 L 297.4 326.4 L 298.2 326.6 L 298.9 326.9 L 299.6 327.3 L 300.3 327.7 L 300.9 328.3 L 301.5 328.9 L 302.1 329.6 L 302.7 330.4 L 303.2 331.3 L 303.8 332.2 L 304.3 333.1 L 304.8 334.0 L 305.2 335.0 L 305.7 336.0 L 306.1 337.0 L 306.5 338.1 L 306.9 339.2 L 307.2 340.4 L 307.5 341.5 L 307.8 342.6 L 308.1 343.7 L 308.3 344.8 L 308.5 345.9 L 308.6 347.0 L 308.8 348.0 L 308.8 349.1 L 308.9 350.1 L 308.9 351.1 L 308.9 352.8 L 308.7 354.7 L 308.5 356.6 L 308.2 358.6 L 307.9 360.8 L 307.4 363.0 L 306.9 365.4 L 306.2 367.8 L 305.5 370.4 L 304.7 373.0 L 303.8 375.7 L 302.9 378.5 L 301.9 381.4 L 300.8 384.3 L 299.7 387.2 L 298.4 390.2 L 297.2 393.2 L 295.8 396.3 L 294.4 399.5 L 292.9 402.7 L 291.3 405.9 L 289.7 409.2 L 288.1 412.5 L 286.4 415.8 L 284.6 419.1 L 282.8 422.4 L 280.9 425.7 L 278.9 429.1 L 276.9 432.4 L 274.9 435.8 L 272.8 439.2 L 270.6 442.5 L 268.4 445.8 L 266.2 449.1 L 263.9 452.3 L 261.6 455.5 L 259.2 458.7 L 256.8 461.8 L 254.4 464.9 L 251.9 468.0 L 249.3 471.0 L 246.7 473.9 L 244.1 476.8 L 241.5 479.5 L 238.8 482.2 L 236.1 484.8 L 233.4 487.4 L 230.6 489.8 L 227.8 492.2 L 225.0 494.4 L 224.7 496.0 L 224.5 497.5 L 224.2 499.1 L 224.0 500.6 L 223.8 502.2 L 223.5 503.7 L 223.3 505.2 L 223.1 506.8 L 222.8 508.3 L 222.6 509.8 L 222.4 511.3 L 222.2 512.8 L 222.1 514.3 L 221.9 515.7 L 221.8 517.1 L 221.7 518.5 L 221.6 519.8 L 221.6 521.1 L 221.5 522.4 L 221.5 523.7 L 221.6 525.8 L 221.7 527.9 L 221.9 529.8 L 222.1 531.7 L 222.5 533.3 L 222.9 534.9 L 223.4 536.4 L 223.9 537.7 L 224.6 538.9 L 225.3 540.0 L 226.0 541.0 L 226.8 541.8 L 227.7 542.6 L 228.6 543.3 L 229.5 543.8 L 230.5 544.3 L 231.6 544.7 L 232.6 544.9 L 233.7 545.1 L 234.9 545.1 L 236.5 545.0 L 238.0 544.8 L 239.6 544.5 L 241.2 544.0 L 242.8 543.3 L 244.4 542.5 L 246.0 541.5 L 247.6 540.4 L 249.3 539.2 L 250.9 537.8 L 252.6 536.3 L 254.2 534.7 L 255.8 533.1 L 257.4 531.3 L 259.0 529.5 L 260.6 527.6 L 262.2 525.6 L 263.7 523.5 L 265.3 521.4 L 266.8 519.2 L 268.3 516.9 L 269.7 514.6 L 271.2 512.3 L 272.6 510.0 L 273.9 507.6 L 275.2 505.3 L 276.5 502.9 L 277.7 500.5 L 278.9 498.1 L 280.0 495.7 L 287.5 499.7 L 284.8 505.1 L 282.0 510.3 L 279.2 515.3 L 276.3 520.0 L 273.3 524.5 L 270.3 528.7 L 267.2 532.8 L 264.1 536.5 L 260.9 540.1 L 257.6 543.4 L 254.3 546.5 L 251.0 549.2 L 247.6 551.6 L 244.2 553.7 L 240.7 555.4 L 237.3 556.9 L 233.8 558.0 L 230.2 558.8 L 226.7 559.3 Z M 230.6 475.2 L 232.7 472.8 L 234.7 470.5 L 236.8 468.1 L 238.8 465.6 L 240.9 463.1 L 242.9 460.6 L 244.8 458.1 L 246.8 455.5 L 248.7 452.8 L 250.6 450.1 L 252.5 447.4 L 254.3 444.7 L 256.2 442.0 L 258.0 439.2 L 259.7 436.5 L 261.4 433.7 L 263.1 431.0 L 264.8 428.2 L 266.4 425.4 L 268.0 422.6 L 269.6 419.8 L 271.1 417.0 L 272.6 414.3 L 274.0 411.6 L 275.4 408.8 L 276.8 406.2 L 278.1 403.5 L 279.4 400.8 L 280.7 398.2 L 281.9 395.6 L 283.0 393.0 L 284.1 390.4 L 285.2 388.0 L 286.2 385.5 L 287.1 383.2 L 288.0 380.8 L 288.8 378.6 L 289.6 376.3 L 290.4 374.2 L 291.0 372.1 L 291.7 370.0 L 292.2 368.1 L 292.7 366.2 L 293.2 364.4 L 293.6 362.7 L 293.9 361.1 L 294.2 359.6 L 294.4 358.1 L 294.5 356.7 L 294.6 355.4 L 294.6 355.3 L 294.6 355.1 L 294.6 355.0 L 294.6 354.8 L 294.6 354.7 L 294.6 354.5 L 294.1 354.6 L 293.5 354.8 L 292.9 355.1 L 292.1 355.6 L 291.4 356.3 L 290.6 357.0 L 289.7 357.9 L 288.7 359.0 L 287.7 360.2 L 286.7 361.5 L 285.6 363.0 L 284.4 364.5 L 283.2 366.2 L 282.0 367.9 L 280.7 369.8 L 279.4 371.7 L 278.1 373.8 L 276.7 376.0 L 275.2 378.3 L 273.8 380.6 L 272.3 383.1 L 270.8 385.6 L 269.3 388.2 L 267.7 390.9 L 266.2 393.6 L 264.7 396.4 L 263.1 399.3 L 261.5 402.2 L 260.0 405.2 L 258.4 408.3 L 256.8 411.4 L 255.2 414.6 L 253.7 417.8 L 252.1 421.0 L 250.6 424.3 L 249.1 427.6 L 247.6 430.9 L 246.1 434.3 L 244.6 437.7 L 243.1 441.1 L 241.7 444.6 L 240.3 448.0 L 238.9 451.4 L 237.6 454.8 L 236.3 458.2 L 235.1 461.6 L 233.9 465.0 L 232.8 468.4 L 231.6 471.8 Z " fill="#f1e6d2" fill-rule="evenodd" stroke="#cdbfa6" stroke-width="0.6"/>
<path d="M 305.9 566.0 L 302.8 565.9 L 299.9 565.7 L 297.1 565.4 L 294.4 564.9 L 291.8 564.4 L 289.4 563.7 L 287.1 562.8 L 284.9 561.9 L 282.8 560.8 L 280.8 559.6 L 279.0 558.3 L 277.3 556.9 L 275.6 555.4 L 274.1 553.9 L 272.7 552.4 L 271.4 550.7 L 270.2 549.0 L 269.1 547.2 L 268.2 545.3 L 267.3 543.4 L 266.5 541.4 L 265.9 539.5 L 265.2 537.5 L 264.7 535.5 L 264.3 533.5 L 263.9 531.5 L 263.6 529.5 L 263.4 527.4 L 263.3 525.4 L 263.3 523.4 L 263.3 521.6 L 263.4 519.9 L 263.5 518.3 L 263.7 516.8 L 263.9 515.3 L 264.2 514.0 L 264.5 512.7 L 264.9 511.5 L 265.3 510.4 L 265.8 509.4 L 266.3 508.4 L 266.8 507.5 L 267.4 506.6 L 267.9 505.8 L 268.6 505.0 L 269.2 504.3 L 269.8 503.7 L 270.5 503.1 L 271.2 502.5 L 272.0 502.1 L 272.7 501.6 L 273.4 501.2 L 274.2 500.8 L 274.9 500.4 L 275.6 500.0 L 276.3 499.6 L 277.0 499.3 L 277.6 499.0 L 278.3 498.7 L 279.0 498.5 L 279.6 498.2 L 280.2 498.0 L 280.8 497.7 L 281.3 497.4 L 281.8 497.2 L 282.3 496.9 L 282.7 496.6 L 283.1 496.3 L 283.5 496.0 L 283.8 495.7 L 285.3 494.0 L 286.9 492.3 L 288.5 490.6 L 290.1 488.8 L 291.7 486.9 L 293.3 485.0 L 294.9 483.1 L 296.5 481.1 L 298.2 479.0 L 299.8 476.9 L 301.4 474.7 L 303.0 472.5 L 304.5 470.2 L 306.0 467.9 L 307.5 465.6 L 308.9 463.2 L 310.2 460.7 L 311.5 458.2 L 312.7 455.7 L 314.0 453.1 L 314.0 450.0 L 314.0 447.6 L 314.1 445.3 L 314.3 443.2 L 314.6 441.2 L 315.0 439.4 L 315.5 437.7 L 316.0 436.1 L 316.6 434.7 L 317.4 433.5 L 318.1 432.4 L 319.0 431.4 L 319.9 430.6 L 320.8 429.8 L 321.7 429.1 L 322.7 428.6 L 323.7 428.1 L 324.7 427.7 L 325.8 427.5 L 326.8 427.3 L 327.9 427.3 L 328.7 427.3 L 329.4 427.3 L 330.0 427.4 L 330.6 427.6 L 331.2 427.7 L 331.7 427.9 L 332.2 428.2 L 332.6 428.5 L 333.0 428.8 L 333.4 429.1 L 333.7 429.5 L 334.0 429.9 L 334.3 430.3 L 334.5 430.7 L 334.7 431.2 L 334.9 431.6 L 335.1 432.1 L 335.2 432.5 L 335.3 433.0 L 335.4 433.5 L 335.4 433.9 L 335.4 434.3 L 335.3 434.7 L 335.3 435.1 L 335.2 435.5 L 335.1 436.0 L 335.0 436.4 L 334.9 436.9 L 334.8 437.4 L 334.6 437.8 L 334.5 438.4 L 334.4 438.9 L 334.2 439.5 L 334.1 440.1 L 334.0 440.8 L 334.0 441.5 L 333.9 442.2 L 333.9 443.0 L 333.9 443.8 L 333.9 444.7 L 333.9 446.6 L 334.0 448.5 L 334.3 450.5 L 334.6 452.6 L 335.0 454.7 L 335.5 456.8 L 336.1 459.0 L 336.7 461.3 L 337.5 463.6 L 338.4 466.0 L 339.3 468.4 L 340.2 470.8 L 341.1 473.3 L 342.0 475.8 L 342.9 478.3 L 343.8 480.9 L 344.7 483.4 L 345.6 486.0 L 346.5 488.7 L 347.4 491.3 L 348.2 494.0 L 349.0 496.7 L 349.7 499.4 L 350.3 502.1 L 350.8 504.9 L 351.2 507.6 L 351.5 510.4 L 351.7 513.1 L 351.8 515.9 L 351.9 518.7 L 351.9 519.4 L 351.9 520.2 L 351.9 520.9 L 351.8 521.6 L 351.8 522.3 L 351.8 522.9 L 351.7 523.6 L 351.7 524.3 L 351.6 524.9 L 351.6 525.5 L 351.5 526.1 L 351.4 526.8 L 351.4 527.4 L 351.3 528.0 L 351.2 528.6 L 351.1 529.2 L 351.0 529.7 L 350.9 530.3 L 350.8 530.9 L 350.6 531.4 L 352.6 530.9 L 354.5 530.2 L 356.4 529.4 L 358.3 528.5 L 360.2 527.5 L 362.1 526.4 L 364.0 525.1 L 365.9 523.8 L 367.7 522.3 L 369.6 520.7 L 371.5 519.0 L 373.3 517.1 L 375.1 515.1 L 376.9 512.9 L 378.7 510.5 L 380.5 508.0 L 382.2 505.3 L 383.9 502.5 L 385.6 499.5 L 387.3 496.3 L 391.1 499.1 L 389.8 502.6 L 388.5 505.9 L 387.0 509.1 L 385.5 512.2 L 383.8 515.1 L 382.1 517.9 L 380.2 520.5 L 378.2 523.0 L 376.2 525.3 L 374.0 527.6 L 371.7 529.6 L 369.3 531.5 L 366.9 533.2 L 364.4 534.8 L 361.8 536.2 L 359.2 537.5 L 356.5 538.5 L 353.7 539.4 L 350.8 540.2 L 347.8 540.8 L 346.8 543.3 L 345.6 545.6 L 344.3 547.8 L 342.8 549.9 L 341.3 551.9 L 339.6 553.7 L 337.8 555.4 L 335.8 557.0 L 333.7 558.4 L 331.5 559.7 L 329.2 560.9 L 326.9 562.0 L 324.4 562.9 L 322.0 563.7 L 319.4 564.4 L 316.8 565.0 L 314.2 565.4 L 311.5 565.7 L 308.7 565.9 Z M 303.7 552.3 L 304.9 552.2 L 306.1 552.1 L 307.3 552.0 L 308.5 551.8 L 309.7 551.5 L 310.8 551.2 L 311.9 550.7 L 313.0 550.3 L 314.1 549.8 L 315.2 549.2 L 316.2 548.5 L 317.2 547.8 L 318.2 547.0 L 319.1 546.2 L 319.9 545.4 L 320.8 544.4 L 321.5 543.4 L 322.3 542.4 L 322.9 541.3 L 323.6 540.1 L 321.1 539.5 L 318.6 538.9 L 316.2 538.1 L 313.8 537.2 L 311.5 536.3 L 309.2 535.2 L 307.0 534.1 L 304.8 532.9 L 302.7 531.6 L 300.6 530.2 L 298.6 528.8 L 296.7 527.3 L 294.8 525.9 L 293.1 524.4 L 291.5 523.0 L 289.9 521.5 L 288.5 520.0 L 287.1 518.6 L 285.9 517.1 L 284.7 515.6 L 283.9 515.8 L 283.2 516.2 L 282.5 516.7 L 281.9 517.4 L 281.5 518.1 L 281.1 519.1 L 280.8 520.1 L 280.5 521.3 L 280.4 522.5 L 280.4 524.0 L 280.4 526.0 L 280.6 528.0 L 280.9 530.0 L 281.3 532.0 L 281.8 533.9 L 282.5 535.8 L 283.3 537.7 L 284.2 539.6 L 285.2 541.4 L 286.3 543.3 L 287.5 545.0 L 288.9 546.5 L 290.3 547.9 L 291.9 549.0 L 293.6 550.0 L 295.4 550.8 L 297.3 551.5 L 299.3 551.9 L 301.4 552.2 Z M 326.1 530.8 L 326.2 530.4 L 326.3 529.9 L 326.4 529.4 L 326.5 529.0 L 326.6 528.4 L 326.7 527.9 L 326.7 527.4 L 326.8 526.8 L 326.8 526.3 L 326.9 525.7 L 326.9 525.1 L 326.9 524.6 L 326.9 524.0 L 327.0 523.5 L 327.0 523.1 L 327.0 522.6 L 327.0 522.2 L 327.0 521.9 L 327.0 521.5 L 327.0 521.2 L 326.9 518.4 L 326.8 515.6 L 326.5 512.8 L 326.3 510.0 L 325.9 507.3 L 325.5 504.5 L 325.1 501.7 L 324.5 499.0 L 323.9 496.2 L 323.3 493.5 L 322.6 490.8 L 321.9 488.0 L 321.2 485.2 L 320.5 482.5 L 319.9 479.7 L 319.2 476.9 L 318.5 474.0 L 317.8 471.2 L 317.1 468.4 L 316.4 465.5 L 315.3 467.5 L 314.1 469.4 L 312.9 471.4 L 311.7 473.5 L 310.4 475.5 L 309.1 477.6 L 307.7 479.8 L 306.3 481.9 L 304.9 484.1 L 303.4 486.4 L 301.9 488.5 L 300.4 490.7 L 299.0 492.7 L 297.6 494.6 L 296.2 496.5 L 294.8 498.2 L 293.4 499.9 L 292.0 501.5 L 290.7 503.0 L 289.4 504.4 L 290.4 506.1 L 291.6 507.7 L 292.8 509.3 L 294.1 511.0 L 295.5 512.5 L 297.0 514.1 L 298.6 515.7 L 300.3 517.2 L 302.1 518.7 L 304.0 520.2 L 306.0 521.7 L 308.0 523.1 L 310.0 524.3 L 312.2 525.5 L 314.3 526.6 L 316.6 527.6 L 318.9 528.6 L 321.2 529.4 L 323.6 530.2 Z " fill="#f1e6d2" fill-rule="evenodd" stroke="#cdbfa6" stroke-width="0.6"/>
<path d="M 399.1 559.4 L 396.5 559.3 L 393.9 559.1 L 391.5 558.7 L 389.3 558.1 L 387.2 557.4 L 385.2 556.5 L 383.3 555.5 L 381.6 554.3 L 380.1 552.9 L 378.6 551.4 L 377.3 549.7 L 376.2 548.0 L 375.1 546.2 L 374.2 544.3 L 373.5 542.4 L 372.9 540.4 L 372.4 538.4 L 372.1 536.2 L 371.8 534.0 L 371.8 531.7 L 371.8 530.3 L 371.9 528.7 L 372.0 527.1 L 372.2 525.4 L 372.4 523.7 L 372.7 521.8 L 373.0 519.9 L 373.4 517.9 L 373.8 515.9 L 374.3 513.7 L 374.8 511.5 L 375.3 509.3 L 375.9 507.1 L 376.6 504.8 L 377.3 502.6 L 378.0 500.3 L 378.7 497.9 L 379.5 495.6 L 380.4 493.2 L 381.3 490.9 L 382.2 488.5 L 383.1 486.1 L 384.1 483.8 L 385.1 481.5 L 386.1 479.2 L 387.2 477.0 L 388.3 474.8 L 389.4 472.6 L 390.6 470.4 L 391.8 468.3 L 393.0 466.2 L 394.2 464.2 L 395.4 462.3 L 396.7 460.5 L 397.9 458.7 L 399.2 457.0 L 400.5 455.4 L 401.8 453.9 L 403.1 452.4 L 404.5 451.1 L 405.8 449.8 L 407.2 448.7 L 408.6 447.6 L 409.9 446.8 L 411.3 446.0 L 412.6 445.4 L 414.0 445.0 L 415.4 444.6 L 416.7 444.4 L 418.1 444.4 L 418.9 444.4 L 419.6 444.5 L 420.3 444.6 L 421.0 444.7 L 421.7 444.9 L 422.3 445.2 L 422.9 445.5 L 423.5 445.8 L 424.1 446.2 L 424.7 446.6 L 425.2 447.1 L 425.7 447.6 L 426.1 448.2 L 426.4 448.8 L 426.7 449.4 L 427.0 450.1 L 427.2 450.9 L 427.3 451.7 L 427.4 452.5 L 427.4 453.4 L 427.4 454.2 L 427.2 455.2 L 427.0 456.2 L 426.7 457.3 L 426.2 458.5 L 425.7 459.7 L 425.1 461.0 L 424.4 462.5 L 423.6 464.0 L 422.7 465.6 L 421.7 467.2 L 420.7 468.9 L 419.7 470.6 L 418.6 472.4 L 417.5 474.3 L 416.4 476.2 L 415.2 478.1 L 414.0 480.1 L 412.8 482.1 L 411.5 484.2 L 410.2 486.3 L 409.0 488.5 L 407.8 490.6 L 406.6 492.8 L 405.5 494.9 L 404.3 497.1 L 403.3 499.4 L 402.2 501.6 L 401.2 503.8 L 400.2 506.1 L 399.3 508.3 L 398.5 510.6 L 397.8 512.8 L 397.1 515.0 L 396.6 517.1 L 396.2 519.3 L 395.8 521.4 L 395.6 523.5 L 395.5 525.6 L 395.4 527.7 L 395.4 529.6 L 395.6 531.4 L 395.7 533.0 L 396.0 534.6 L 396.3 535.9 L 396.7 537.2 L 397.2 538.3 L 397.7 539.3 L 398.3 540.2 L 399.0 540.9 L 399.7 541.5 L 400.5 542.1 L 401.4 542.6 L 402.4 543.0 L 403.4 543.4 L 404.5 543.7 L 405.6 543.9 L 406.8 544.1 L 408.1 544.2 L 409.4 544.2 L 411.5 544.1 L 413.7 543.8 L 415.9 543.2 L 418.2 542.5 L 420.4 541.5 L 422.8 540.4 L 425.1 539.0 L 427.5 537.4 L 429.9 535.6 L 432.4 533.6 L 434.9 531.3 L 437.4 528.8 L 440.0 525.8 L 442.5 522.6 L 445.1 519.1 L 447.7 515.2 L 450.3 511.0 L 452.9 506.6 L 455.6 501.7 L 458.2 496.6 L 462.9 501.6 L 460.6 506.9 L 458.3 512.0 L 455.8 516.9 L 453.2 521.5 L 450.5 525.9 L 447.7 530.1 L 444.8 534.0 L 441.7 537.6 L 438.5 541.0 L 435.2 544.2 L 431.8 547.1 L 428.4 549.7 L 424.9 552.0 L 421.4 553.9 L 417.8 555.6 L 414.2 557.0 L 410.5 558.1 L 406.8 558.8 L 403.0 559.3 Z " fill="#f1e6d2" fill-rule="evenodd" stroke="#cdbfa6" stroke-width="0.6"/>
<path d="M 435.8 419.2 L 434.7 419.2 L 433.5 419.1 L 432.4 418.9 L 431.3 418.7 L 430.2 418.5 L 429.1 418.1 L 428.1 417.8 L 427.1 417.3 L 426.1 416.8 L 425.1 416.3 L 424.2 415.7 L 423.4 415.0 L 422.6 414.2 L 422.0 413.4 L 421.5 412.6 L 421.1 411.6 L 420.7 410.6 L 420.5 409.6 L 420.3 408.4 L 420.3 407.2 L 420.4 405.7 L 420.6 404.3 L 421.0 402.9 L 421.6 401.5 L 422.3 400.2 L 423.2 398.9 L 424.2 397.7 L 425.5 396.5 L 426.8 395.4 L 428.4 394.3 L 430.0 393.3 L 431.6 392.4 L 433.3 391.6 L 435.0 390.9 L 436.6 390.3 L 438.3 389.9 L 440.0 389.5 L 441.8 389.2 L 443.5 389.1 L 445.3 389.0 L 446.3 389.0 L 447.4 389.1 L 448.4 389.2 L 449.4 389.4 L 450.4 389.6 L 451.3 389.9 L 452.2 390.2 L 453.0 390.6 L 453.9 391.0 L 454.6 391.5 L 455.4 392.0 L 456.0 392.7 L 456.6 393.4 L 457.1 394.1 L 457.6 395.0 L 457.9 396.0 L 458.2 397.0 L 458.4 398.1 L 458.5 399.3 L 458.5 400.5 L 458.5 401.8 L 458.2 403.1 L 457.9 404.4 L 457.4 405.7 L 456.7 407.0 L 456.0 408.2 L 455.0 409.5 L 453.9 410.7 L 452.7 411.9 L 451.4 413.1 L 449.9 414.3 L 448.5 415.3 L 447.0 416.2 L 445.4 417.0 L 443.9 417.7 L 442.3 418.2 L 440.8 418.6 L 439.1 418.9 L 437.5 419.1 Z " fill="#f1e6d2" fill-rule="evenodd" stroke="#cdbfa6" stroke-width="0.6"/>
<path d="M 483.2 563.8 L 479.3 563.7 L 475.6 563.3 L 472.1 562.8 L 468.7 562.1 L 465.6 561.1 L 462.6 559.9 L 459.8 558.5 L 457.2 556.9 L 454.8 555.1 L 452.5 553.0 L 450.5 550.8 L 448.7 548.5 L 447.1 546.1 L 445.7 543.6 L 444.5 541.0 L 443.5 538.2 L 442.8 535.4 L 442.2 532.4 L 441.9 529.3 L 441.8 526.2 L 441.9 523.4 L 442.1 520.6 L 442.4 517.8 L 442.9 514.9 L 443.6 512.0 L 444.3 509.1 L 445.2 506.2 L 446.3 503.2 L 447.5 500.1 L 448.8 497.1 L 450.3 494.0 L 451.8 491.0 L 453.4 488.0 L 455.2 485.1 L 457.0 482.2 L 458.9 479.3 L 461.0 476.4 L 463.1 473.6 L 465.3 470.9 L 467.6 468.2 L 470.0 465.5 L 472.4 463.0 L 474.9 460.5 L 477.5 458.2 L 480.1 455.9 L 482.7 453.8 L 485.4 451.7 L 488.1 449.8 L 490.9 448.0 L 493.7 446.2 L 496.6 444.6 L 499.5 443.2 L 502.3 442.0 L 505.2 440.9 L 508.0 439.9 L 510.9 439.2 L 513.8 438.6 L 516.6 438.2 L 519.5 437.9 L 522.4 437.8 L 524.0 437.9 L 525.6 438.0 L 527.1 438.2 L 528.7 438.5 L 530.2 438.9 L 531.8 439.4 L 533.3 439.9 L 534.8 440.5 L 536.3 441.2 L 537.7 442.0 L 539.1 443.0 L 540.4 444.0 L 541.5 445.3 L 542.4 446.7 L 543.2 448.3 L 543.9 450.0 L 544.4 452.0 L 544.8 454.0 L 545.0 456.3 L 545.1 458.7 L 545.0 461.0 L 544.8 463.3 L 544.4 465.6 L 544.0 467.9 L 543.3 470.1 L 542.6 472.3 L 541.7 474.5 L 540.7 476.6 L 539.5 478.7 L 538.2 480.8 L 536.8 482.8 L 535.3 484.8 L 533.7 486.7 L 532.0 488.6 L 530.2 490.5 L 528.3 492.3 L 526.3 494.1 L 524.3 495.8 L 522.1 497.5 L 519.9 499.1 L 517.5 500.7 L 515.2 502.2 L 512.8 503.7 L 510.3 505.1 L 507.8 506.4 L 505.2 507.7 L 502.6 509.0 L 500.0 510.1 L 497.3 511.3 L 494.5 512.3 L 491.8 513.3 L 489.0 514.2 L 486.2 515.1 L 483.4 515.8 L 480.6 516.6 L 477.9 517.2 L 475.1 517.7 L 472.3 518.2 L 469.5 518.7 L 466.7 519.0 L 466.6 519.3 L 466.6 519.5 L 466.5 519.8 L 466.5 520.0 L 466.4 520.3 L 466.4 520.5 L 466.3 520.8 L 466.3 521.1 L 466.3 521.4 L 466.2 521.6 L 466.2 521.9 L 466.2 522.3 L 466.1 522.6 L 466.1 523.0 L 466.1 523.5 L 466.1 523.9 L 466.1 524.4 L 466.1 525.0 L 466.1 525.5 L 466.1 526.2 L 466.1 526.5 L 466.1 526.9 L 466.1 527.3 L 466.1 527.8 L 466.2 528.3 L 466.2 528.9 L 466.3 529.5 L 466.4 530.1 L 466.4 530.8 L 466.5 531.6 L 466.6 532.4 L 466.8 533.2 L 467.0 534.0 L 467.2 534.8 L 467.4 535.6 L 467.7 536.4 L 468.0 537.3 L 468.4 538.1 L 468.8 539.0 L 469.2 539.8 L 469.6 540.7 L 470.2 541.5 L 470.7 542.3 L 471.4 543.1 L 472.1 543.9 L 472.8 544.6 L 473.6 545.3 L 474.5 546.0 L 475.4 546.7 L 476.3 547.3 L 477.4 547.9 L 478.5 548.4 L 479.7 548.9 L 480.9 549.3 L 482.2 549.6 L 483.6 549.9 L 485.1 550.1 L 486.7 550.3 L 488.3 550.4 L 490.0 550.4 L 492.6 550.3 L 495.2 550.1 L 497.9 549.7 L 500.5 549.2 L 503.1 548.6 L 505.7 547.8 L 508.4 546.8 L 511.0 545.7 L 513.6 544.5 L 516.3 543.1 L 518.9 541.6 L 521.5 540.0 L 524.1 538.3 L 526.6 536.5 L 529.1 534.6 L 531.6 532.6 L 534.0 530.5 L 536.4 528.3 L 538.8 526.0 L 541.2 523.7 L 543.5 521.2 L 545.7 518.7 L 547.8 516.1 L 549.9 513.5 L 551.9 510.8 L 553.8 508.1 L 555.6 505.3 L 557.3 502.5 L 559.0 499.6 L 560.6 496.6 L 566.8 501.6 L 565.1 505.3 L 563.3 508.9 L 561.3 512.4 L 559.3 515.8 L 557.2 519.1 L 555.0 522.3 L 552.7 525.4 L 550.3 528.5 L 547.8 531.4 L 545.2 534.2 L 542.5 537.0 L 539.8 539.6 L 537.0 542.1 L 534.2 544.4 L 531.3 546.7 L 528.3 548.8 L 525.3 550.8 L 522.3 552.6 L 519.2 554.4 L 516.0 556.0 L 512.8 557.5 L 509.5 558.8 L 506.3 560.0 L 503.0 561.0 L 499.8 561.8 L 496.5 562.5 L 493.2 563.1 L 489.9 563.5 L 486.5 563.7 Z M 470.1 507.5 L 471.7 507.3 L 473.4 507.0 L 475.1 506.6 L 476.9 506.2 L 478.7 505.6 L 480.5 505.0 L 482.3 504.4 L 484.2 503.6 L 486.2 502.8 L 488.1 501.9 L 490.1 500.9 L 492.1 499.9 L 494.0 498.9 L 496.0 497.8 L 497.9 496.6 L 499.8 495.4 L 501.7 494.1 L 503.6 492.8 L 505.4 491.5 L 507.3 490.1 L 509.1 488.6 L 510.8 487.2 L 512.5 485.7 L 514.1 484.1 L 515.6 482.6 L 517.1 481.0 L 518.5 479.4 L 519.9 477.7 L 521.1 476.1 L 522.4 474.4 L 523.5 472.7 L 524.5 471.0 L 525.4 469.2 L 526.1 467.5 L 526.8 465.8 L 527.3 464.1 L 527.7 462.3 L 528.0 460.6 L 528.2 458.9 L 528.3 457.1 L 528.2 456.5 L 528.2 455.8 L 528.1 455.3 L 528.1 454.7 L 527.9 454.2 L 527.8 453.8 L 527.6 453.4 L 527.5 453.0 L 527.3 452.7 L 527.0 452.5 L 526.8 452.2 L 526.5 452.0 L 526.1 451.8 L 525.8 451.7 L 525.4 451.5 L 525.0 451.4 L 524.5 451.3 L 524.0 451.3 L 523.5 451.2 L 523.0 451.2 L 521.5 451.3 L 520.1 451.4 L 518.6 451.7 L 517.2 452.0 L 515.7 452.5 L 514.2 453.1 L 512.7 453.7 L 511.1 454.5 L 509.6 455.4 L 508.0 456.3 L 506.5 457.4 L 505.0 458.5 L 503.4 459.7 L 501.9 460.9 L 500.4 462.3 L 498.8 463.6 L 497.3 465.1 L 495.8 466.5 L 494.3 468.1 L 492.8 469.7 L 491.3 471.4 L 489.9 473.1 L 488.5 474.8 L 487.1 476.6 L 485.7 478.4 L 484.4 480.2 L 483.1 482.1 L 481.9 484.0 L 480.6 485.9 L 479.4 487.9 L 478.3 489.9 L 477.2 491.9 L 476.1 493.8 L 475.1 495.8 L 474.2 497.8 L 473.2 499.7 L 472.4 501.7 L 471.6 503.6 L 470.8 505.6 Z " fill="#f1e6d2" fill-rule="evenodd" stroke="#cdbfa6" stroke-width="0.6"/>
<text x="301" y="666" font-family="sans-serif" font-size="11" text-anchor="middle" fill="#666">Stege zwischen den Inseln: 0 (gleiche Farbe wie der Schriftzug)</text>
</svg>