<svg xmlns="http://www.w3.org/2000/svg" viewBox="0 0 760 430" width="680">
<rect width="100%" height="100%" fill="#ffffff"/>
<g transform="translate(190.0,215.0) scale(0.4600)">
<polygon points="342.50,0.00 342.47,4.74 342.37,9.48 342.20,14.22 341.97,18.96 325.91,32.19 325.31,37.85 324.60,43.50 323.79,49.13 322.89,54.75 321.89,60.35 320.80,65.93 319.60,71.49 318.31,77.03 316.93,82.55 315.44,88.04 313.87,93.51 312.19,98.95 310.43,104.36 308.57,109.73 306.62,115.08 304.57,120.39 302.43,125.66 300.20,130.89 297.89,136.09 295.48,141.24 292.98,146.36 290.39,151.42 287.72,156.44 284.96,161.42 282.11,166.34 279.18,171.22 276.16,176.04 273.06,180.81 269.88,185.53 266.62,190.19 263.27,194.79 259.85,199.34 256.35,203.82 252.77,208.24 249.11,212.60 245.38,216.90 241.57,221.13 237.70,225.29 233.75,229.39 229.73,233.41 225.64,237.37 221.48,241.25 217.26,245.06 212.97,248.80 208.61,252.46 204.19,256.05 199.72,259.56 195.18,262.99 190.58,266.34 185.92,269.61 181.21,272.80 176.45,275.90 171.63,278.93 166.76,281.87 161.83,284.72 156.86,287.49 151.85,290.17 146.78,292.77 141.67,295.27 136.52,297.69 131.33,300.01 123.71,319.38 119.27,321.06 114.82,322.68 110.34,324.24 105.84,325.74 104.29,320.98 116.88,317.90 114.74,312.08 102.75,316.23 102.71,316.11 90.97,319.69 89.34,313.96 101.24,311.59 101.20,311.47 99.66,306.72 103.90,305.31 108.11,303.84 112.31,302.31 116.48,300.73 129.33,295.43 134.44,293.14 139.51,290.76 144.54,288.30 149.53,285.74 154.47,283.10 159.36,280.37 164.21,277.56 169.01,274.67 173.75,271.69 178.45,268.63 183.09,265.49 187.67,262.27 192.20,258.97 196.67,255.59 201.08,252.14 205.43,248.61 209.71,245.00 213.94,241.32 218.10,237.57 222.19,233.74 226.22,229.85 230.18,225.88 234.07,221.85 237.89,217.75 241.63,213.59 245.31,209.36 248.91,205.06 252.43,200.71 255.88,196.29 259.25,191.82 262.54,187.29 265.76,182.70 268.89,178.05 271.94,173.36 274.92,168.61 277.80,163.80 280.61,158.95 283.33,154.06 285.96,149.11 288.51,144.12 290.97,139.09 293.34,134.01 295.62,128.90 297.82,123.74 299.92,118.55 301.93,113.32 303.86,108.06 305.69,102.76 307.43,97.44 309.07,92.08 310.63,86.70 312.09,81.29 313.45,75.86 314.72,70.40 315.90,64.92 316.98,59.43 317.96,53.91 318.85,48.38 319.64,42.83 320.34,37.27 320.94,31.70 322.01,17.85 322.22,13.39 322.38,8.93 322.47,4.47 322.50,0.00 327.50,0.00 326.06,12.45 332.26,12.68 332.50,0.00 332.62,0.00 332.39,-12.28 338.35,-12.50 337.38,0.00 337.50,0.00" fill="#2f6fb5" fill-opacity="0.8" stroke="#111" stroke-width="1.2"/>
<polygon points="105.84,325.74 101.32,327.17 96.78,328.54 92.22,329.85 87.64,331.10 70.09,319.91 64.53,321.08 58.94,322.15 53.33,323.13 47.71,324.01 42.08,324.79 36.43,325.47 30.77,326.05 25.10,326.54 19.42,326.92 13.74,327.21 8.06,327.40 2.37,327.49 -3.32,327.48 -9.01,327.38 -14.70,327.17 -20.38,326.87 -26.05,326.46 -31.72,325.96 -37.38,325.36 -43.02,324.66 -48.66,323.87 -54.28,322.97 -59.88,321.98 -65.46,320.89 -71.03,319.71 -76.57,318.42 -82.09,317.05 -87.58,315.57 -93.05,314.00 -98.49,312.34 -103.90,310.58 -109.28,308.73 -114.63,306.78 -119.94,304.75 -125.22,302.62 -130.46,300.40 -135.66,298.08 -140.81,295.68 -145.93,293.19 -151.00,290.61 -156.02,287.95 -161.00,285.19 -165.93,282.35 -170.81,279.43 -175.64,276.42 -180.42,273.32 -185.14,270.15 -189.80,266.89 -194.41,263.55 -198.96,260.14 -203.45,256.64 -207.88,253.07 -212.24,249.42 -216.54,245.70 -220.78,241.90 -224.95,238.02 -229.05,234.08 -233.08,230.07 -237.04,225.98 -240.93,221.83 -244.75,217.61 -265.52,216.35 -268.49,212.65 -271.41,208.91 -274.27,205.13 -277.09,201.32 -273.04,198.38 -266.22,209.39 -261.35,205.56 -269.00,195.44 -268.90,195.37 -275.93,185.31 -270.98,181.99 -265.05,192.57 -264.95,192.50 -260.91,189.56 -258.26,193.16 -255.56,196.71 -252.81,200.23 -250.01,203.71 -241.01,214.29 -237.25,218.44 -233.42,222.53 -229.52,226.55 -225.55,230.51 -221.51,234.39 -217.41,238.20 -213.24,241.94 -209.00,245.61 -204.70,249.21 -200.34,252.72 -195.92,256.17 -191.44,259.53 -186.90,262.82 -182.31,266.02 -177.66,269.15 -172.96,272.20 -168.21,275.16 -163.40,278.04 -158.55,280.84 -153.64,283.55 -148.69,286.18 -143.70,288.72 -138.66,291.17 -133.58,293.53 -128.46,295.81 -123.31,298.00 -118.11,300.09 -112.88,302.10 -107.62,304.01 -102.32,305.84 -96.99,307.57 -91.63,309.21 -86.25,310.75 -80.84,312.20 -75.40,313.56 -69.94,314.82 -64.46,315.99 -58.96,317.06 -53.45,318.04 -47.91,318.92 -42.37,319.71 -36.81,320.39 -31.23,320.98 -25.65,321.48 -20.07,321.88 -14.47,322.18 -8.87,322.38 -3.27,322.48 2.33,322.49 7.93,322.40 13.53,322.22 19.13,321.93 24.72,321.55 30.30,321.07 35.87,320.50 41.43,319.83 46.98,319.06 52.52,318.19 58.04,317.23 63.54,316.18 69.02,315.03 82.53,311.76 86.84,310.59 91.13,309.36 95.40,308.07 99.66,306.72 101.20,311.47 88.92,313.95 90.61,319.92 102.75,316.23 102.79,316.34 114.39,312.33 116.44,317.93 104.26,320.87 104.29,320.98" fill="#3f9a55" fill-opacity="0.8" stroke="#111" stroke-width="1.2"/>
<polygon points="-277.09,201.32 -279.85,197.46 -282.56,193.57 -285.21,189.64 -287.81,185.67 -282.59,165.52 -285.43,160.59 -288.17,155.61 -290.83,150.58 -293.40,145.50 -295.89,140.38 -298.28,135.22 -300.59,130.02 -302.80,124.78 -304.92,119.50 -306.95,114.18 -308.89,108.83 -310.73,103.45 -312.48,98.04 -314.14,92.60 -315.70,87.12 -317.16,81.63 -318.53,76.11 -319.81,70.56 -320.99,64.99 -322.07,59.41 -323.05,53.80 -323.94,48.18 -324.72,42.55 -325.41,36.90 -326.01,31.24 -326.50,25.58 -326.89,19.90 -327.19,14.22 -327.39,8.53 -327.49,2.84 -327.49,-2.84 -327.39,-8.53 -327.19,-14.22 -326.89,-19.90 -326.50,-25.58 -326.01,-31.24 -325.41,-36.90 -324.72,-42.55 -323.94,-48.18 -323.05,-53.80 -322.07,-59.41 -320.99,-64.99 -319.81,-70.56 -318.53,-76.11 -317.16,-81.63 -315.70,-87.12 -314.14,-92.60 -312.48,-98.04 -310.73,-103.45 -308.89,-108.83 -306.95,-114.18 -304.92,-119.50 -302.80,-124.78 -300.59,-130.02 -298.28,-135.22 -295.89,-140.38 -293.40,-145.50 -290.83,-150.58 -288.17,-155.61 -285.43,-160.59 -282.59,-165.52 -287.81,-185.67 -285.21,-189.64 -282.56,-193.57 -279.85,-197.46 -277.09,-201.32 -273.04,-198.38 -281.41,-188.49 -276.26,-185.04 -269.00,-195.44 -268.90,-195.37 -261.51,-205.16 -256.82,-201.48 -265.05,-192.57 -264.95,-192.50 -260.91,-189.56 -263.51,-185.93 -266.06,-182.26 -268.55,-178.56 -271.00,-174.83 -278.28,-162.99 -281.07,-158.14 -283.77,-153.23 -286.39,-148.28 -288.92,-143.28 -291.37,-138.24 -293.73,-133.16 -296.00,-128.03 -298.18,-122.87 -300.26,-117.67 -302.26,-112.44 -304.17,-107.17 -305.99,-101.87 -307.71,-96.54 -309.34,-91.18 -310.88,-85.79 -312.32,-80.38 -313.67,-74.94 -314.93,-69.48 -316.09,-64.00 -317.15,-58.50 -318.12,-52.98 -318.99,-47.45 -319.77,-41.90 -320.45,-36.34 -321.03,-30.77 -321.52,-25.19 -321.90,-19.60 -322.20,-14.00 -322.39,-8.40 -322.49,-2.80 -322.49,2.80 -322.39,8.40 -322.20,14.00 -321.90,19.60 -321.52,25.19 -321.03,30.77 -320.45,36.34 -319.77,41.90 -318.99,47.45 -318.12,52.98 -317.15,58.50 -316.09,64.00 -314.93,69.48 -313.67,74.94 -312.32,80.38 -310.88,85.79 -309.34,91.18 -307.71,96.54 -305.99,101.87 -304.17,107.17 -302.26,112.44 -300.26,117.67 -298.18,122.87 -296.00,128.03 -293.73,133.16 -291.37,138.24 -288.92,143.28 -286.39,148.28 -283.77,153.23 -281.07,158.14 -278.28,162.99 -271.00,174.83 -268.55,178.56 -266.06,182.26 -263.51,185.93 -260.91,189.56 -264.95,192.50 -271.11,181.59 -276.26,185.04 -269.00,195.44 -269.10,195.51 -261.69,205.31 -266.38,208.99 -272.95,198.31 -273.04,198.38" fill="#c46a1f" fill-opacity="0.8" stroke="#111" stroke-width="1.2"/>
<polygon points="-277.09,-201.32 -274.27,-205.13 -271.41,-208.91 -268.49,-212.65 -265.52,-216.35 -244.75,-217.61 -240.93,-221.83 -237.04,-225.98 -233.08,-230.07 -229.05,-234.08 -224.95,-238.02 -220.78,-241.90 -216.54,-245.70 -212.24,-249.42 -207.88,-253.07 -203.45,-256.64 -198.96,-260.14 -194.41,-263.55 -189.80,-266.89 -185.14,-270.15 -180.42,-273.32 -175.64,-276.42 -170.81,-279.43 -165.93,-282.35 -161.00,-285.19 -156.02,-287.95 -151.00,-290.61 -145.93,-293.19 -140.81,-295.68 -135.66,-298.08 -130.46,-300.40 -125.22,-302.62 -119.94,-304.75 -114.63,-306.78 -109.28,-308.73 -103.90,-310.58 -98.49,-312.34 -93.05,-314.00 -87.58,-315.57 -82.09,-317.05 -76.57,-318.42 -71.03,-319.71 -65.46,-320.89 -59.88,-321.98 -54.28,-322.97 -48.66,-323.87 -43.02,-324.66 -37.38,-325.36 -31.72,-325.96 -26.05,-326.46 -20.38,-326.87 -14.70,-327.17 -9.01,-327.38 -3.32,-327.48 2.37,-327.49 8.06,-327.40 13.74,-327.21 19.42,-326.92 25.10,-326.54 30.77,-326.05 36.43,-325.47 42.08,-324.79 47.71,-324.01 53.33,-323.13 58.94,-322.15 64.53,-321.08 70.09,-319.91 87.64,-331.10 92.22,-329.85 96.78,-328.54 101.32,-327.17 105.84,-325.74 104.29,-320.98 92.30,-325.88 90.61,-319.92 102.75,-316.23 102.71,-316.11 114.31,-312.11 112.26,-306.51 101.24,-311.59 101.20,-311.47 99.66,-306.72 95.40,-308.07 91.13,-309.36 86.84,-310.59 82.53,-311.76 69.02,-315.03 63.54,-316.18 58.04,-317.23 52.52,-318.19 46.98,-319.06 41.43,-319.83 35.87,-320.50 30.30,-321.07 24.72,-321.55 19.13,-321.93 13.53,-322.22 7.93,-322.40 2.33,-322.49 -3.27,-322.48 -8.87,-322.38 -14.47,-322.18 -20.07,-321.88 -25.65,-321.48 -31.23,-320.98 -36.81,-320.39 -42.37,-319.71 -47.91,-318.92 -53.45,-318.04 -58.96,-317.06 -64.46,-315.99 -69.94,-314.82 -75.40,-313.56 -80.84,-312.20 -86.25,-310.75 -91.63,-309.21 -96.99,-307.57 -102.32,-305.84 -107.62,-304.01 -112.88,-302.10 -118.11,-300.09 -123.31,-298.00 -128.46,-295.81 -133.58,-293.53 -138.66,-291.17 -143.70,-288.72 -148.69,-286.18 -153.64,-283.55 -158.55,-280.84 -163.40,-278.04 -168.21,-275.16 -172.96,-272.20 -177.66,-269.15 -182.31,-266.02 -186.90,-262.82 -191.44,-259.53 -195.92,-256.17 -200.34,-252.72 -204.70,-249.21 -209.00,-245.61 -213.24,-241.94 -217.41,-238.20 -221.51,-234.39 -225.55,-230.51 -229.52,-226.55 -233.42,-222.53 -237.25,-218.44 -241.01,-214.29 -250.01,-203.71 -252.81,-200.23 -255.56,-196.71 -258.26,-193.16 -260.91,-189.56 -264.95,-192.50 -256.47,-201.72 -261.35,-205.56 -269.00,-195.44 -269.10,-195.51 -276.13,-185.44 -281.08,-188.77 -272.95,-198.31 -273.04,-198.38" fill="#8a4fbf" fill-opacity="0.8" stroke="#111" stroke-width="1.2"/>
<polygon points="105.84,-325.74 110.34,-324.24 114.82,-322.68 119.27,-321.06 123.71,-319.38 131.33,-300.01 136.52,-297.69 141.67,-295.27 146.78,-292.77 151.85,-290.17 156.86,-287.49 161.83,-284.72 166.76,-281.87 171.63,-278.93 176.45,-275.90 181.21,-272.80 185.92,-269.61 190.58,-266.34 195.18,-262.99 199.72,-259.56 204.19,-256.05 208.61,-252.46 212.97,-248.80 217.26,-245.06 221.48,-241.25 225.64,-237.37 229.73,-233.41 233.75,-229.39 237.70,-225.29 241.57,-221.13 245.38,-216.90 249.11,-212.60 252.77,-208.24 256.35,-203.82 259.85,-199.34 263.27,-194.79 266.62,-190.19 269.88,-185.53 273.06,-180.81 276.16,-176.04 279.18,-171.22 282.11,-166.34 284.96,-161.42 287.72,-156.44 290.39,-151.42 292.98,-146.36 295.48,-141.24 297.89,-136.09 300.20,-130.89 302.43,-125.66 304.57,-120.39 306.62,-115.08 308.57,-109.73 310.43,-104.36 312.19,-98.95 313.87,-93.51 315.44,-88.04 316.93,-82.55 318.31,-77.03 319.60,-71.49 320.80,-65.93 321.89,-60.35 322.89,-54.75 323.79,-49.13 324.60,-43.50 325.31,-37.85 325.91,-32.19 341.97,-18.96 342.20,-14.22 342.37,-9.48 342.47,-4.74 342.50,-0.00 337.50,-0.00 338.45,-12.92 332.26,-12.68 332.50,-0.00 332.38,-0.00 332.15,12.27 326.20,12.05 327.62,-0.00 327.50,-0.00 322.50,-0.00 322.47,-4.47 322.38,-8.93 322.22,-13.39 322.01,-17.85 320.94,-31.70 320.34,-37.27 319.64,-42.83 318.85,-48.38 317.96,-53.91 316.98,-59.43 315.90,-64.92 314.72,-70.40 313.45,-75.86 312.09,-81.29 310.63,-86.70 309.07,-92.08 307.43,-97.44 305.69,-102.76 303.86,-108.06 301.93,-113.32 299.92,-118.55 297.82,-123.74 295.62,-128.90 293.34,-134.01 290.97,-139.09 288.51,-144.12 285.96,-149.11 283.33,-154.06 280.61,-158.95 277.80,-163.80 274.92,-168.61 271.94,-173.36 268.89,-178.05 265.76,-182.70 262.54,-187.29 259.25,-191.82 255.88,-196.29 252.43,-200.71 248.91,-205.06 245.31,-209.36 241.63,-213.59 237.89,-217.75 234.07,-221.85 230.18,-225.88 226.22,-229.85 222.19,-233.74 218.10,-237.57 213.94,-241.32 209.71,-245.00 205.43,-248.61 201.08,-252.14 196.67,-255.59 192.20,-258.97 187.67,-262.27 183.09,-265.49 178.45,-268.63 173.75,-271.69 169.01,-274.67 164.21,-277.56 159.36,-280.37 154.47,-283.10 149.53,-285.74 144.54,-288.30 139.51,-290.76 134.44,-293.14 129.33,-295.43 116.48,-300.73 112.31,-302.31 108.11,-303.84 103.90,-305.31 99.66,-306.72 101.20,-311.47 112.60,-306.26 114.74,-312.08 102.75,-316.23 102.79,-316.34 91.04,-319.92 92.67,-325.65 104.26,-320.87 104.29,-320.98" fill="#2f6fb5" fill-opacity="0.8" stroke="#111" stroke-width="1.2"/>
</g>
<text x="190.0" y="30" font-family="sans-serif" font-size="17" font-weight="600" text-anchor="middle">5 Segmente</text>
<text x="190.0" y="410" font-family="sans-serif" font-size="13" text-anchor="middle" fill="#444">aussen 655 / innen 645 / Wand 5 / Hoehe 50 mm</text>
<g transform="translate(570.0,215.0) scale(0.4600)">
<polygon points="342.50,0.00 342.47,4.74 342.37,9.48 342.20,14.22 341.97,18.96 325.91,32.19 325.31,37.84 324.60,43.48 323.80,49.11 322.90,54.72 321.90,60.31 320.80,65.89 319.61,71.45 318.32,76.98 316.94,82.49 315.46,87.98 313.89,93.44 312.22,98.87 310.46,104.28 308.60,109.65 306.65,114.99 304.61,120.29 302.48,125.56 300.25,130.79 297.94,135.98 295.53,141.13 293.04,146.23 290.46,151.30 287.79,156.31 285.03,161.28 282.19,166.20 279.27,171.08 276.26,175.90 273.16,180.66 269.99,185.38 266.73,190.03 263.39,194.63 259.97,199.17 256.48,203.65 252.91,208.07 249.26,212.43 245.53,216.72 241.74,220.95 237.87,225.11 233.92,229.21 229.91,233.23 225.83,237.19 221.68,241.07 217.46,244.88 213.18,248.61 208.84,252.28 204.43,255.86 199.96,259.37 195.43,262.80 190.84,266.15 187.41,286.68 183.42,289.25 179.40,291.76 175.34,294.21 171.25,296.61 168.75,292.28 180.42,286.65 177.11,281.40 166.25,287.95 166.19,287.85 155.45,293.79 152.66,288.52 163.81,283.73 163.75,283.62 161.25,279.29 165.10,277.03 168.92,274.72 172.71,272.36 176.46,269.94 187.92,262.09 192.44,258.79 196.91,255.41 201.31,251.96 205.65,248.42 209.93,244.82 214.14,241.14 218.30,237.39 222.38,233.56 226.40,229.67 230.35,225.71 234.23,221.68 238.05,217.58 241.79,213.41 245.45,209.19 249.05,204.90 252.56,200.54 256.00,196.13 259.37,191.66 262.66,187.13 265.86,182.55 268.99,177.90 272.04,173.21 275.00,168.46 277.88,163.67 280.68,158.82 283.40,153.93 286.02,148.99 288.57,144.00 291.02,138.97 293.39,133.90 295.67,128.79 297.86,123.64 299.96,118.45 301.97,113.23 303.89,107.97 305.72,102.69 307.45,97.36 309.09,92.02 310.64,86.64 312.10,81.24 313.46,75.81 314.73,70.36 315.91,64.89 316.98,59.39 317.97,53.88 318.85,48.36 319.64,42.82 320.34,37.27 320.94,31.70 322.01,17.85 322.22,13.39 322.38,8.93 322.47,4.47 322.50,0.00 327.50,0.00 326.06,12.45 332.26,12.68 332.50,0.00 332.62,0.00 332.39,-12.28 338.35,-12.50 337.38,0.00 337.50,0.00" fill="#2f6fb5" fill-opacity="0.8" stroke="#111" stroke-width="1.2"/>
<polygon points="171.25,296.61 167.13,298.96 162.97,301.24 158.78,303.47 154.57,305.64 135.08,298.35 129.88,300.65 124.64,302.85 119.37,304.97 114.06,307.00 108.72,308.93 103.34,310.77 97.93,312.52 92.49,314.17 87.03,315.73 81.54,317.19 76.02,318.55 70.48,319.83 64.92,321.00 59.34,322.08 53.74,323.06 48.13,323.94 42.50,324.73 36.86,325.42 31.21,326.01 25.55,326.50 19.88,326.90 14.20,327.19 8.52,327.39 2.84,327.49 -2.84,327.49 -8.52,327.39 -14.20,327.19 -19.88,326.90 -25.55,326.50 -31.21,326.01 -36.86,325.42 -42.50,324.73 -48.13,323.94 -53.74,323.06 -59.34,322.08 -64.92,321.00 -70.48,319.83 -76.02,318.55 -81.54,317.19 -87.03,315.73 -92.49,314.17 -97.93,312.52 -103.34,310.77 -108.72,308.93 -114.06,307.00 -119.37,304.97 -124.64,302.85 -129.88,300.65 -135.08,298.35 -154.57,305.64 -158.78,303.47 -162.97,301.24 -167.13,298.96 -171.25,296.61 -168.75,292.28 -158.04,299.57 -155.15,294.09 -166.25,287.95 -166.19,287.85 -176.70,281.52 -173.53,276.47 -163.81,283.73 -163.75,283.62 -161.25,279.29 -157.37,281.50 -153.45,283.65 -149.51,285.75 -145.54,287.79 -133.01,293.79 -127.90,296.06 -122.74,298.23 -117.55,300.31 -112.32,302.31 -107.06,304.21 -101.76,306.02 -96.44,307.74 -91.08,309.37 -85.70,310.91 -80.29,312.35 -74.86,313.69 -69.41,314.94 -63.93,316.10 -58.44,317.16 -52.92,318.13 -47.40,319.00 -41.85,319.77 -36.30,320.45 -30.73,321.03 -25.16,321.52 -19.57,321.91 -13.99,322.20 -8.39,322.39 -2.80,322.49 2.80,322.49 8.39,322.39 13.99,322.20 19.57,321.91 25.16,321.52 30.73,321.03 36.30,320.45 41.85,319.77 47.40,319.00 52.92,318.13 58.44,317.16 63.93,316.10 69.41,314.94 74.86,313.69 80.29,312.35 85.70,310.91 91.08,309.37 96.44,307.74 101.76,306.02 107.06,304.21 112.32,302.31 117.55,300.31 122.74,298.23 127.90,296.06 133.01,293.79 145.54,287.79 149.51,285.75 153.45,283.65 157.37,281.50 161.25,279.29 163.75,283.62 152.25,288.60 155.15,294.09 166.25,287.95 166.31,288.06 176.83,281.72 180.00,286.77 168.69,292.18 168.75,292.28" fill="#3f9a55" fill-opacity="0.8" stroke="#111" stroke-width="1.2"/>
<polygon points="-171.25,296.61 -175.34,294.21 -179.40,291.76 -183.42,289.25 -187.41,286.68 -190.84,266.15 -195.43,262.80 -199.96,259.37 -204.43,255.86 -208.84,252.28 -213.18,248.61 -217.46,244.88 -221.68,241.07 -225.83,237.19 -229.91,233.23 -233.92,229.21 -237.87,225.11 -241.74,220.95 -245.53,216.72 -249.26,212.43 -252.91,208.07 -256.48,203.65 -259.97,199.17 -263.39,194.63 -266.73,190.03 -269.99,185.38 -273.16,180.66 -276.26,175.90 -279.27,171.08 -282.19,166.20 -285.03,161.28 -287.79,156.31 -290.46,151.30 -293.04,146.23 -295.53,141.13 -297.94,135.98 -300.25,130.79 -302.48,125.56 -304.61,120.29 -306.65,114.99 -308.60,109.65 -310.46,104.28 -312.22,98.87 -313.89,93.44 -315.46,87.98 -316.94,82.49 -318.32,76.98 -319.61,71.45 -320.80,65.89 -321.90,60.31 -322.90,54.72 -323.80,49.11 -324.60,43.48 -325.31,37.84 -325.91,32.19 -341.97,18.96 -342.20,14.22 -342.37,9.48 -342.47,4.74 -342.50,0.00 -337.50,0.00 -338.45,12.92 -332.26,12.68 -332.50,0.00 -332.38,0.00 -332.15,-12.27 -326.20,-12.05 -327.62,0.00 -327.50,0.00 -322.50,0.00 -322.47,4.47 -322.38,8.93 -322.22,13.39 -322.01,17.85 -320.94,31.70 -320.34,37.27 -319.64,42.82 -318.85,48.36 -317.97,53.88 -316.98,59.39 -315.91,64.89 -314.73,70.36 -313.46,75.81 -312.10,81.24 -310.64,86.64 -309.09,92.02 -307.45,97.36 -305.72,102.69 -303.89,107.97 -301.97,113.23 -299.96,118.45 -297.86,123.64 -295.67,128.79 -293.39,133.90 -291.02,138.97 -288.57,144.00 -286.02,148.99 -283.40,153.93 -280.68,158.82 -277.88,163.67 -275.00,168.46 -272.04,173.21 -268.99,177.90 -265.86,182.55 -262.66,187.13 -259.37,191.66 -256.00,196.13 -252.56,200.54 -249.05,204.90 -245.45,209.19 -241.79,213.41 -238.05,217.58 -234.23,221.68 -230.35,225.71 -226.40,229.67 -222.38,233.56 -218.30,237.39 -214.14,241.14 -209.93,244.82 -205.65,248.42 -201.31,251.96 -196.91,255.41 -192.44,258.79 -187.92,262.09 -176.46,269.94 -172.71,272.36 -168.92,274.72 -165.10,277.03 -161.25,279.29 -163.75,283.62 -173.81,276.16 -177.11,281.40 -166.25,287.95 -166.31,288.06 -155.56,294.00 -158.35,299.27 -168.69,292.18 -168.75,292.28" fill="#c46a1f" fill-opacity="0.8" stroke="#111" stroke-width="1.2"/>
<polygon points="-342.50,0.00 -342.47,-4.74 -342.37,-9.48 -342.20,-14.22 -341.97,-18.96 -325.91,-32.19 -325.31,-37.84 -324.60,-43.48 -323.80,-49.11 -322.90,-54.72 -321.90,-60.31 -320.80,-65.89 -319.61,-71.45 -318.32,-76.98 -316.94,-82.49 -315.46,-87.98 -313.89,-93.44 -312.22,-98.87 -310.46,-104.28 -308.60,-109.65 -306.65,-114.99 -304.61,-120.29 -302.48,-125.56 -300.25,-130.79 -297.94,-135.98 -295.53,-141.13 -293.04,-146.23 -290.46,-151.30 -287.79,-156.31 -285.03,-161.28 -282.19,-166.20 -279.27,-171.08 -276.26,-175.90 -273.16,-180.66 -269.99,-185.38 -266.73,-190.03 -263.39,-194.63 -259.97,-199.17 -256.48,-203.65 -252.91,-208.07 -249.26,-212.43 -245.53,-216.72 -241.74,-220.95 -237.87,-225.11 -233.92,-229.21 -229.91,-233.23 -225.83,-237.19 -221.68,-241.07 -217.46,-244.88 -213.18,-248.61 -208.84,-252.28 -204.43,-255.86 -199.96,-259.37 -195.43,-262.80 -190.84,-266.15 -187.41,-286.68 -183.42,-289.25 -179.40,-291.76 -175.34,-294.21 -171.25,-296.61 -168.75,-292.28 -180.42,-286.65 -177.11,-281.40 -166.25,-287.95 -166.19,-287.85 -155.45,-293.79 -152.66,-288.52 -163.81,-283.73 -163.75,-283.62 -161.25,-279.29 -165.10,-277.03 -168.92,-274.72 -172.71,-272.36 -176.46,-269.94 -187.92,-262.09 -192.44,-258.79 -196.91,-255.41 -201.31,-251.96 -205.65,-248.42 -209.93,-244.82 -214.14,-241.14 -218.30,-237.39 -222.38,-233.56 -226.40,-229.67 -230.35,-225.71 -234.23,-221.68 -238.05,-217.58 -241.79,-213.41 -245.45,-209.19 -249.05,-204.90 -252.56,-200.54 -256.00,-196.13 -259.37,-191.66 -262.66,-187.13 -265.86,-182.55 -268.99,-177.90 -272.04,-173.21 -275.00,-168.46 -277.88,-163.67 -280.68,-158.82 -283.40,-153.93 -286.02,-148.99 -288.57,-144.00 -291.02,-138.97 -293.39,-133.90 -295.67,-128.79 -297.86,-123.64 -299.96,-118.45 -301.97,-113.23 -303.89,-107.97 -305.72,-102.69 -307.45,-97.36 -309.09,-92.02 -310.64,-86.64 -312.10,-81.24 -313.46,-75.81 -314.73,-70.36 -315.91,-64.89 -316.98,-59.39 -317.97,-53.88 -318.85,-48.36 -319.64,-42.82 -320.34,-37.27 -320.94,-31.70 -322.01,-17.85 -322.22,-13.39 -322.38,-8.93 -322.47,-4.47 -322.50,0.00 -327.50,0.00 -326.06,-12.45 -332.26,-12.68 -332.50,0.00 -332.62,0.00 -332.39,12.28 -338.35,12.50 -337.38,0.00 -337.50,0.00" fill="#8a4fbf" fill-opacity="0.8" stroke="#111" stroke-width="1.2"/>
<polygon points="-171.25,-296.61 -167.13,-298.96 -162.97,-301.24 -158.78,-303.47 -154.57,-305.64 -135.08,-298.35 -129.88,-300.65 -124.64,-302.85 -119.37,-304.97 -114.06,-307.00 -108.72,-308.93 -103.34,-310.77 -97.93,-312.52 -92.49,-314.17 -87.03,-315.73 -81.54,-317.19 -76.02,-318.55 -70.48,-319.83 -64.92,-321.00 -59.34,-322.08 -53.74,-323.06 -48.13,-323.94 -42.50,-324.73 -36.86,-325.42 -31.21,-326.01 -25.55,-326.50 -19.88,-326.90 -14.20,-327.19 -8.52,-327.39 -2.84,-327.49 2.84,-327.49 8.52,-327.39 14.20,-327.19 19.88,-326.90 25.55,-326.50 31.21,-326.01 36.86,-325.42 42.50,-324.73 48.13,-323.94 53.74,-323.06 59.34,-322.08 64.92,-321.00 70.48,-319.83 76.02,-318.55 81.54,-317.19 87.03,-315.73 92.49,-314.17 97.93,-312.52 103.34,-310.77 108.72,-308.93 114.06,-307.00 119.37,-304.97 124.64,-302.85 129.88,-300.65 135.08,-298.35 154.57,-305.64 158.78,-303.47 162.97,-301.24 167.13,-298.96 171.25,-296.61 168.75,-292.28 158.04,-299.57 155.15,-294.09 166.25,-287.95 166.19,-287.85 176.70,-281.52 173.53,-276.47 163.81,-283.73 163.75,-283.62 161.25,-279.29 157.37,-281.50 153.45,-283.65 149.51,-285.75 145.54,-287.79 133.01,-293.79 127.90,-296.06 122.74,-298.23 117.55,-300.31 112.32,-302.31 107.06,-304.21 101.76,-306.02 96.44,-307.74 91.08,-309.37 85.70,-310.91 80.29,-312.35 74.86,-313.69 69.41,-314.94 63.93,-316.10 58.44,-317.16 52.92,-318.13 47.40,-319.00 41.85,-319.77 36.30,-320.45 30.73,-321.03 25.16,-321.52 19.57,-321.91 13.99,-322.20 8.39,-322.39 2.80,-322.49 -2.80,-322.49 -8.39,-322.39 -13.99,-322.20 -19.57,-321.91 -25.16,-321.52 -30.73,-321.03 -36.30,-320.45 -41.85,-319.77 -47.40,-319.00 -52.92,-318.13 -58.44,-317.16 -63.93,-316.10 -69.41,-314.94 -74.86,-313.69 -80.29,-312.35 -85.70,-310.91 -91.08,-309.37 -96.44,-307.74 -101.76,-306.02 -107.06,-304.21 -112.32,-302.31 -117.55,-300.31 -122.74,-298.23 -127.90,-296.06 -133.01,-293.79 -145.54,-287.79 -149.51,-285.75 -153.45,-283.65 -157.37,-281.50 -161.25,-279.29 -163.75,-283.62 -152.25,-288.60 -155.15,-294.09 -166.25,-287.95 -166.31,-288.06 -176.83,-281.72 -180.00,-286.77 -168.69,-292.18 -168.75,-292.28" fill="#2f6fb5" fill-opacity="0.8" stroke="#111" stroke-width="1.2"/>
<polygon points="171.25,-296.61 175.34,-294.21 179.40,-291.76 183.42,-289.25 187.41,-286.68 190.84,-266.15 195.43,-262.80 199.96,-259.37 204.43,-255.86 208.84,-252.28 213.18,-248.61 217.46,-244.88 221.68,-241.07 225.83,-237.19 229.91,-233.23 233.92,-229.21 237.87,-225.11 241.74,-220.95 245.53,-216.72 249.26,-212.43 252.91,-208.07 256.48,-203.65 259.97,-199.17 263.39,-194.63 266.73,-190.03 269.99,-185.38 273.16,-180.66 276.26,-175.90 279.27,-171.08 282.19,-166.20 285.03,-161.28 287.79,-156.31 290.46,-151.30 293.04,-146.23 295.53,-141.13 297.94,-135.98 300.25,-130.79 302.48,-125.56 304.61,-120.29 306.65,-114.99 308.60,-109.65 310.46,-104.28 312.22,-98.87 313.89,-93.44 315.46,-87.98 316.94,-82.49 318.32,-76.98 319.61,-71.45 320.80,-65.89 321.90,-60.31 322.90,-54.72 323.80,-49.11 324.60,-43.48 325.31,-37.84 325.91,-32.19 341.97,-18.96 342.20,-14.22 342.37,-9.48 342.47,-4.74 342.50,-0.00 337.50,-0.00 338.45,-12.92 332.26,-12.68 332.50,-0.00 332.38,-0.00 332.15,12.27 326.20,12.05 327.62,-0.00 327.50,-0.00 322.50,-0.00 322.47,-4.47 322.38,-8.93 322.22,-13.39 322.01,-17.85 320.94,-31.70 320.34,-37.27 319.64,-42.82 318.85,-48.36 317.97,-53.88 316.98,-59.39 315.91,-64.89 314.73,-70.36 313.46,-75.81 312.10,-81.24 310.64,-86.64 309.09,-92.02 307.45,-97.36 305.72,-102.69 303.89,-107.97 301.97,-113.23 299.96,-118.45 297.86,-123.64 295.67,-128.79 293.39,-133.90 291.02,-138.97 288.57,-144.00 286.02,-148.99 283.40,-153.93 280.68,-158.82 277.88,-163.67 275.00,-168.46 272.04,-173.21 268.99,-177.90 265.86,-182.55 262.66,-187.13 259.37,-191.66 256.00,-196.13 252.56,-200.54 249.05,-204.90 245.45,-209.19 241.79,-213.41 238.05,-217.58 234.23,-221.68 230.35,-225.71 226.40,-229.67 222.38,-233.56 218.30,-237.39 214.14,-241.14 209.93,-244.82 205.65,-248.42 201.31,-251.96 196.91,-255.41 192.44,-258.79 187.92,-262.09 176.46,-269.94 172.71,-272.36 168.92,-274.72 165.10,-277.03 161.25,-279.29 163.75,-283.62 173.81,-276.16 177.11,-281.40 166.25,-287.95 166.31,-288.06 155.56,-294.00 158.35,-299.27 168.69,-292.18 168.75,-292.28" fill="#3f9a55" fill-opacity="0.8" stroke="#111" stroke-width="1.2"/>
</g>
<text x="570.0" y="30" font-family="sans-serif" font-size="17" font-weight="600" text-anchor="middle">6 Segmente</text>
<text x="570.0" y="410" font-family="sans-serif" font-size="13" text-anchor="middle" fill="#444">aussen 655 / innen 645 / Wand 5 / Hoehe 50 mm</text>
</svg>